<?xml version="1.0" encoding="utf-8"?>
<!-- Generator: Adobe Illustrator 22.0.1, SVG Export Plug-In . SVG Version: 6.00 Build 0)  -->
<svg version="1.1" id="Layer_1_1_" xmlns="http://www.w3.org/2000/svg" xmlns:xlink="http://www.w3.org/1999/xlink" x="0px" y="0px"
	 viewBox="0 0 2850 1800" enable-background="new 0 0 2850 1800" xml:space="preserve">
<linearGradient id="SVGID_1_" gradientUnits="userSpaceOnUse" x1="1425" y1="-1.473381e-10" x2="1425" y2="1342.8141">
	<stop  offset="0" style="stop-color:#44164D"/>
	<stop  offset="0.1488" style="stop-color:#4A174D"/>
	<stop  offset="0.3381" style="stop-color:#59194C"/>
	<stop  offset="0.5492" style="stop-color:#731D4A"/>
	<stop  offset="0.7746" style="stop-color:#972248"/>
	<stop  offset="1" style="stop-color:#C32846"/>
</linearGradient>
<rect fill="url(#SVGID_1_)" width="2850" height="1800"/>
<g>
	<g>
		
			<path fill="none" stroke="#FFFFFF" stroke-width="2.9602" stroke-linecap="round" stroke-linejoin="round" stroke-miterlimit="10" d="
			M2415.972,51.992c0-0.384,0-0.768,0-1.153"/>
		
			<path fill="none" stroke="#FFFFFF" stroke-width="2.9602" stroke-linecap="round" stroke-linejoin="round" stroke-miterlimit="10" d="
			M2445.563,117.691"/>
		
			<path fill="none" stroke="#FFFFFF" stroke-width="2.9602" stroke-linecap="round" stroke-linejoin="round" stroke-miterlimit="10" d="
			M2355.693,177.627c-0.365,0.384-0.731,0.768-1.096,1.153"/>
		
			<path fill="none" stroke="#FFFFFF" stroke-width="2.9602" stroke-linecap="round" stroke-linejoin="round" stroke-miterlimit="10" d="
			M2341.446,69.281"/>
		
			<path fill="none" stroke="#FFFFFF" stroke-width="2.9602" stroke-linecap="round" stroke-linejoin="round" stroke-miterlimit="10" d="
			M2262.535,26.634"/>
		
			<path fill="none" stroke="#FFFFFF" stroke-width="2.9602" stroke-linecap="round" stroke-linejoin="round" stroke-miterlimit="10" d="
			M2208.833,93.486c-0.365,0-0.731,0-1.096,0"/>
		
			<path fill="none" stroke="#FFFFFF" stroke-width="2.9602" stroke-linecap="round" stroke-linejoin="round" stroke-miterlimit="10" d="
			M2251.576,211.052c0-0.384,0-0.768,0-1.153"/>
		
			<path fill="none" stroke="#FFFFFF" stroke-width="2.9602" stroke-linecap="round" stroke-linejoin="round" stroke-miterlimit="10" d="
			M2327.391,333.265c-0.094,0.563,1.027,0.521,0.895-0.034"/>
		
			<path fill="none" stroke="#FFFFFF" stroke-width="2.9602" stroke-linecap="round" stroke-linejoin="round" stroke-miterlimit="10" d="
			M2181.433,294.041c0,0.384,0,0.768,0,1.153"/>
		
			<path fill="none" stroke="#FFFFFF" stroke-width="2.9602" stroke-linecap="round" stroke-linejoin="round" stroke-miterlimit="10" d="
			M2123.346,265.225"/>
		
			<path fill="none" stroke="#FFFFFF" stroke-width="2.9602" stroke-linecap="round" stroke-linejoin="round" stroke-miterlimit="10" d="
			M2149.65,408.149"/>
		
			<path fill="none" stroke="#FFFFFF" stroke-width="2.9602" stroke-linecap="round" stroke-linejoin="round" stroke-miterlimit="10" d="
			M2254.864,484.222c0.365-0.384,0.731-0.768,1.096-1.153"/>
		
			<path fill="none" stroke="#FFFFFF" stroke-width="2.9602" stroke-linecap="round" stroke-linejoin="round" stroke-miterlimit="10" d="
			M2571.601,318.245c0-0.384,0-0.768,0-1.153"/>
		
			<path fill="none" stroke="#FFFFFF" stroke-width="2.9602" stroke-linecap="round" stroke-linejoin="round" stroke-miterlimit="10" d="
			M2620.919,393.165"/>
		
			<path fill="none" stroke="#FFFFFF" stroke-width="2.9602" stroke-linecap="round" stroke-linejoin="round" stroke-miterlimit="10" d="
			M2775.452,345.908c0.365-0.384,0.731-0.768,1.096-1.153"/>
		
			<path fill="none" stroke="#FFFFFF" stroke-width="2.9602" stroke-linecap="round" stroke-linejoin="round" stroke-miterlimit="10" d="
			M2802.852,359.74"/>
		
			<path fill="none" stroke="#FFFFFF" stroke-width="2.9602" stroke-linecap="round" stroke-linejoin="round" stroke-miterlimit="10" d="
			M2715.173,253.699c0,0.384,0,0.768,0,1.153"/>
		
			<path fill="none" stroke="#FFFFFF" stroke-width="2.9602" stroke-linecap="round" stroke-linejoin="round" stroke-miterlimit="10" d="
			M2764.492,105.012c0-0.384,0-0.768,0-1.153"/>
		
			<path fill="none" stroke="#FFFFFF" stroke-width="2.9602" stroke-linecap="round" stroke-linejoin="round" stroke-miterlimit="10" d="
			M2796.276,71.586c0.365-0.768,0.731-1.537,1.096-2.305"/>
		
			<path fill="none" stroke="#FFFFFF" stroke-width="2.9602" stroke-linecap="round" stroke-linejoin="round" stroke-miterlimit="10" d="
			M2824.771,115.385c0-0.384,0-0.768,0-1.153"/>
		
			<path fill="none" stroke="#FFFFFF" stroke-width="2.9602" stroke-linecap="round" stroke-linejoin="round" stroke-miterlimit="10" d="
			M2668.046,93.486c-0.365,0-0.73,0-1.096,0"/>
		
			<path fill="none" stroke="#FFFFFF" stroke-width="2.9602" stroke-linecap="round" stroke-linejoin="round" stroke-miterlimit="10" d="
			M2654.895,42.771"/>
		
			<path fill="none" stroke="#FFFFFF" stroke-width="2.9602" stroke-linecap="round" stroke-linejoin="round" stroke-miterlimit="10" d="
			M2698.149,386.068c0-0.681,0-1.361,0-2.042"/>
		
			<path fill="none" stroke="#FFFFFF" stroke-width="2.9602" stroke-linecap="round" stroke-linejoin="round" stroke-miterlimit="10" d="
			M2820.47,678.066"/>
		
			<path fill="none" stroke="#FFFFFF" stroke-width="2.9602" stroke-linecap="round" stroke-linejoin="round" stroke-miterlimit="10" d="
			M2649.609,684.192"/>
		
			<path fill="none" stroke="#FFFFFF" stroke-width="2.9602" stroke-linecap="round" stroke-linejoin="round" stroke-miterlimit="10" d="
			M2624.369,582.095c0-0.681,0-1.361,0-2.042"/>
		
			<path fill="none" stroke="#FFFFFF" stroke-width="2.9602" stroke-linecap="round" stroke-linejoin="round" stroke-miterlimit="10" d="
			M2463.216,865.924"/>
		
			<path fill="none" stroke="#FFFFFF" stroke-width="2.9602" stroke-linecap="round" stroke-linejoin="round" stroke-miterlimit="10" d="
			M2558.354,941.476c-0.647,0-1.294,0-1.942,0"/>
		
			<path fill="none" stroke="#FFFFFF" stroke-width="2.9602" stroke-linecap="round" stroke-linejoin="round" stroke-miterlimit="10" d="
			M2399.143,994.567c0.647,0,1.294,0,1.942,0"/>
		
			<path fill="none" stroke="#FFFFFF" stroke-width="2.9602" stroke-linecap="round" stroke-linejoin="round" stroke-miterlimit="10" d="
			M2338.953,919.015c1.294,0,2.589,0,3.883,0"/>
		
			<path fill="none" stroke="#FFFFFF" stroke-width="2.9602" stroke-linecap="round" stroke-linejoin="round" stroke-miterlimit="10" d="
			M2717.565,919.015c0-0.681,0-1.361,0-2.042"/>
		
			<path fill="none" stroke="#FFFFFF" stroke-width="2.9602" stroke-linecap="round" stroke-linejoin="round" stroke-miterlimit="10" d="
			M2729.215,947.602c0,0.681,0,1.361,0,2.042"/>
		
			<path fill="none" stroke="#FFFFFF" stroke-width="2.9602" stroke-linecap="round" stroke-linejoin="round" stroke-miterlimit="10" d="
			M2806.879,933.308"/>
		
			<path fill="none" stroke="#FFFFFF" stroke-width="2.9602" stroke-linecap="round" stroke-linejoin="round" stroke-miterlimit="10" d="
			M2696.208,1159.964c-0.647-0.681-1.294-1.361-1.942-2.042"/>
		
			<path fill="none" stroke="#FFFFFF" stroke-width="2.9602" stroke-linecap="round" stroke-linejoin="round" stroke-miterlimit="10" d="
			M2711.741,1194.677"/>
		
			<path fill="none" stroke="#FFFFFF" stroke-width="2.9602" stroke-linecap="round" stroke-linejoin="round" stroke-miterlimit="10" d="
			M2558.354,1192.635"/>
		
			<path fill="none" stroke="#FFFFFF" stroke-width="2.9602" stroke-linecap="round" stroke-linejoin="round" stroke-miterlimit="10" d="
			M2797.171,1188.551c0,0.681,0,1.361,0,2.042"/>
		
			<path fill="none" stroke="#FFFFFF" stroke-width="2.9602" stroke-linecap="round" stroke-linejoin="round" stroke-miterlimit="10" d="
			M2208.865,1172.216"/>
		
			<path fill="none" stroke="#FFFFFF" stroke-width="2.9602" stroke-linecap="round" stroke-linejoin="round" stroke-miterlimit="10" d="
			M2104.019,1266.145"/>
		
			<path fill="none" stroke="#FFFFFF" stroke-width="2.9602" stroke-linecap="round" stroke-linejoin="round" stroke-miterlimit="10" d="
			M2076.836,1182.425"/>
		
			<path fill="none" stroke="#FFFFFF" stroke-width="2.9602" stroke-linecap="round" stroke-linejoin="round" stroke-miterlimit="10" d="
			M1993.348,951.686"/>
		
			<path fill="none" stroke="#FFFFFF" stroke-width="2.9602" stroke-linecap="round" stroke-linejoin="round" stroke-miterlimit="10" d="
			M1905.975,965.98"/>
		
			<path fill="none" stroke="#FFFFFF" stroke-width="2.9602" stroke-linecap="round" stroke-linejoin="round" stroke-miterlimit="10" d="
			M1843.844,927.183c-0.647,0-1.294,0-1.942,0"/>
		
			<path fill="none" stroke="#FFFFFF" stroke-width="2.9602" stroke-linecap="round" stroke-linejoin="round" stroke-miterlimit="10" d="
			M2043.829,594.346c0-0.681,0-1.361,0-2.042"/>
		
			<path fill="none" stroke="#FFFFFF" stroke-width="2.9602" stroke-linecap="round" stroke-linejoin="round" stroke-miterlimit="10" d="
			M2171.975,641.311c-0.647,0-1.294,0-1.942,0"/>
		
			<path fill="none" stroke="#FFFFFF" stroke-width="2.9602" stroke-linecap="round" stroke-linejoin="round" stroke-miterlimit="10" d="
			M1911.8,678.066"/>
		
			<path fill="none" stroke="#FFFFFF" stroke-width="2.9602" stroke-linecap="round" stroke-linejoin="round" stroke-miterlimit="10" d="
			M1921.508,138.994c-0.647,0.681-1.294,1.361-1.942,2.042"/>
		
			<path fill="none" stroke="#FFFFFF" stroke-width="2.9602" stroke-linecap="round" stroke-linejoin="round" stroke-miterlimit="10" d="
			M2061.304,4.225"/>
		
			<path fill="none" stroke="#FFFFFF" stroke-width="2.9602" stroke-linecap="round" stroke-linejoin="round" stroke-miterlimit="10" d="
			M1843.844,83.861c0-0.681,0-1.361,0-2.042"/>
		
			<path fill="none" stroke="#FFFFFF" stroke-width="2.9602" stroke-linecap="round" stroke-linejoin="round" stroke-miterlimit="10" d="
			M1775.888,316.642c-0.647,0-1.294,0-1.942,0"/>
		
			<path fill="none" stroke="#FFFFFF" stroke-width="2.9602" stroke-linecap="round" stroke-linejoin="round" stroke-miterlimit="10" d="
			M1731.231,420.781c0.647,0,1.294,0,1.942,0"/>
		
			<path fill="none" stroke="#FFFFFF" stroke-width="2.9602" stroke-linecap="round" stroke-linejoin="round" stroke-miterlimit="10" d="
			M1589.494,257.426"/>
		
			<path fill="none" stroke="#FFFFFF" stroke-width="2.9602" stroke-linecap="round" stroke-linejoin="round" stroke-miterlimit="10" d="
			M1453.582,339.104"/>
		
			<path fill="none" stroke="#FFFFFF" stroke-width="2.9602" stroke-linecap="round" stroke-linejoin="round" stroke-miterlimit="10" d="
			M1684.633,269.678"/>
		
			<path fill="none" stroke="#FFFFFF" stroke-width="2.9602" stroke-linecap="round" stroke-linejoin="round" stroke-miterlimit="10" d="
			M1484.647,181.874c1.942,0,3.883,0,5.825,0"/>
		
			<path fill="none" stroke="#FFFFFF" stroke-width="2.9602" stroke-linecap="round" stroke-linejoin="round" stroke-miterlimit="10" d="
			M1647.742,169.623c-0.647,0-1.294,0-1.942,0"/>
		
			<path fill="none" stroke="#FFFFFF" stroke-width="2.9602" stroke-linecap="round" stroke-linejoin="round" stroke-miterlimit="10" d="
			M1271.071,108.364"/>
		
			<path fill="none" stroke="#FFFFFF" stroke-width="2.9602" stroke-linecap="round" stroke-linejoin="round" stroke-miterlimit="10" d="
			M1175.933,110.406"/>
		
			<path fill="none" stroke="#FFFFFF" stroke-width="2.9602" stroke-linecap="round" stroke-linejoin="round" stroke-miterlimit="10" d="
			M1337.086,316.642"/>
		
			<path fill="none" stroke="#FFFFFF" stroke-width="2.9602" stroke-linecap="round" stroke-linejoin="round" stroke-miterlimit="10" d="
			M1179.816,310.517c0.647-0.681,1.294-1.361,1.942-2.042"/>
		
			<path fill="none" stroke="#FFFFFF" stroke-width="2.9602" stroke-linecap="round" stroke-linejoin="round" stroke-miterlimit="10" d="
			M1059.436,277.845"/>
		
			<path fill="none" stroke="#FFFFFF" stroke-width="2.9602" stroke-linecap="round" stroke-linejoin="round" stroke-miterlimit="10" d="
			M1067.203,179.832c0.647,0.681,1.294,1.361,1.942,2.042"/>
		
			<path fill="none" stroke="#FFFFFF" stroke-width="2.9602" stroke-linecap="round" stroke-linejoin="round" stroke-miterlimit="10" d="
			M975.947,326.852"/>
		
			<path fill="none" stroke="#FFFFFF" stroke-width="2.9602" stroke-linecap="round" stroke-linejoin="round" stroke-miterlimit="10" d="
			M1036.137,24.645"/>
		
			<path fill="none" stroke="#FFFFFF" stroke-width="2.9602" stroke-linecap="round" stroke-linejoin="round" stroke-miterlimit="10" d="
			M814.794,535.13c0-0.681,0-1.361,0-2.042"/>
		
			<path fill="none" stroke="#FFFFFF" stroke-width="2.9602" stroke-linecap="round" stroke-linejoin="round" stroke-miterlimit="10" d="
			M735.189,555.549c-0.647,0-1.294,0-1.942,0"/>
		
			<path fill="none" stroke="#FFFFFF" stroke-width="2.9602" stroke-linecap="round" stroke-linejoin="round" stroke-miterlimit="10" d="
			M845.86,633.143c0.647,0,1.294,0,1.942,0"/>
		
			<path fill="none" stroke="#FFFFFF" stroke-width="2.9602" stroke-linecap="round" stroke-linejoin="round" stroke-miterlimit="10" d="
			M754.605,716.863c0-0.681,0-1.361,0-2.042"/>
		
			<path fill="none" stroke="#FFFFFF" stroke-width="2.9602" stroke-linecap="round" stroke-linejoin="round" stroke-miterlimit="10" d="
			M838.094,1008.86C836.491,1008.86,836.491,1008.86,838.094,1008.86"/>
		
			<path fill="none" stroke="#FFFFFF" stroke-width="2.9602" stroke-linecap="round" stroke-linejoin="round" stroke-miterlimit="10" d="
			M911.875,976.189C910.272,976.189,910.272,976.189,911.875,976.189"/>
		
			<path fill="none" stroke="#FFFFFF" stroke-width="2.9602" stroke-linecap="round" stroke-linejoin="round" stroke-miterlimit="10" d="
			M995.363,845.505C995.363,843.819,995.363,843.819,995.363,845.505"/>
		
			<path fill="none" stroke="#FFFFFF" stroke-width="2.9602" stroke-linecap="round" stroke-linejoin="round" stroke-miterlimit="10" d="
			M1073.028,1192.635"/>
		
			<path fill="none" stroke="#FFFFFF" stroke-width="2.9602" stroke-linecap="round" stroke-linejoin="round" stroke-miterlimit="10" d="
			M836.152,1282.48c0.647,0,1.294,0,1.942,0"/>
		
			<path fill="none" stroke="#FFFFFF" stroke-width="2.9602" stroke-linecap="round" stroke-linejoin="round" stroke-miterlimit="10" d="
			M715.773,1059.909c0.647,0,1.294,0,1.942,0"/>
		
			<path fill="none" stroke="#FFFFFF" stroke-width="2.9602" stroke-linecap="round" stroke-linejoin="round" stroke-miterlimit="10" d="
			M616.751,1186.509"/>
		
			<path fill="none" stroke="#FFFFFF" stroke-width="2.9602" stroke-linecap="round" stroke-linejoin="round" stroke-miterlimit="10" d="
			M564.328,1166.09"/>
		
			<path fill="none" stroke="#FFFFFF" stroke-width="2.9602" stroke-linecap="round" stroke-linejoin="round" stroke-miterlimit="10" d="
			M527.437,1012.944c0-0.681,0-1.361,0-2.042"/>
		
			<path fill="none" stroke="#FFFFFF" stroke-width="2.9602" stroke-linecap="round" stroke-linejoin="round" stroke-miterlimit="10" d="
			M354.634,992.525"/>
		
			<path fill="none" stroke="#FFFFFF" stroke-width="2.9602" stroke-linecap="round" stroke-linejoin="round" stroke-miterlimit="10" d="
			M294.445,890.428"/>
		
			<path fill="none" stroke="#FFFFFF" stroke-width="2.9602" stroke-linecap="round" stroke-linejoin="round" stroke-miterlimit="10" d="
			M261.437,998.651"/>
		
			<path fill="none" stroke="#FFFFFF" stroke-width="2.9602" stroke-linecap="round" stroke-linejoin="round" stroke-miterlimit="10" d="
			M216.781,1190.593"/>
		
			<path fill="none" stroke="#FFFFFF" stroke-width="2.9602" stroke-linecap="round" stroke-linejoin="round" stroke-miterlimit="10" d="
			M158.532,1284.522c0.647,0,1.294,0,1.942,0"/>
		
			<path fill="none" stroke="#FFFFFF" stroke-width="2.9602" stroke-linecap="round" stroke-linejoin="round" stroke-miterlimit="10" d="
			M86.693,1131.377c0-0.681,0-1.361,0-2.042"/>
		
			<path fill="none" stroke="#FFFFFF" stroke-width="2.9602" stroke-linecap="round" stroke-linejoin="round" stroke-miterlimit="10" d="
			M18.737,1180.383c0,0.681,0,1.361,0,2.042"/>
		
			<path fill="none" stroke="#FFFFFF" stroke-width="2.9602" stroke-linecap="round" stroke-linejoin="round" stroke-miterlimit="10" d="
			M55.627,949.644"/>
		
			<path fill="none" stroke="#FFFFFF" stroke-width="2.9602" stroke-linecap="round" stroke-linejoin="round" stroke-miterlimit="10" d="
			M131.35,965.98c-0.647-0.681-1.294-1.361-1.942-2.042"/>
		
			<path fill="none" stroke="#FFFFFF" stroke-width="2.9602" stroke-linecap="round" stroke-linejoin="round" stroke-miterlimit="10" d="
			M86.693,867.966c-0.647,0-1.294,0-1.942,0"/>
		
			<path fill="none" stroke="#FFFFFF" stroke-width="2.9602" stroke-linecap="round" stroke-linejoin="round" stroke-miterlimit="10" d="
			M370.167,596.388c1.294,0,2.589,0,3.883,0"/>
		
			<path fill="none" stroke="#FFFFFF" stroke-width="2.9602" stroke-linecap="round" stroke-linejoin="round" stroke-miterlimit="10" d="
			M445.89,714.821"/>
		
			<path fill="none" stroke="#FFFFFF" stroke-width="2.9602" stroke-linecap="round" stroke-linejoin="round" stroke-miterlimit="10" d="
			M546.853,586.179c0.647-0.681,1.294-1.361,1.942-2.042"/>
		
			<path fill="none" stroke="#FFFFFF" stroke-width="2.9602" stroke-linecap="round" stroke-linejoin="round" stroke-miterlimit="10" d="
			M589.568,682.15c0.647,0.681,1.294,1.361,1.942,2.042"/>
		
			<path fill="none" stroke="#FFFFFF" stroke-width="2.9602" stroke-linecap="round" stroke-linejoin="round" stroke-miterlimit="10" d="
			M515.787,694.401"/>
		
			<path fill="none" stroke="#FFFFFF" stroke-width="2.9602" stroke-linecap="round" stroke-linejoin="round" stroke-miterlimit="10" d="
			M463.364,522.878"/>
		
			<path fill="none" stroke="#FFFFFF" stroke-width="2.9602" stroke-linecap="round" stroke-linejoin="round" stroke-miterlimit="10" d="
			M226.489,529.004c0.647,0,1.294,0,1.942,0"/>
		
			<path fill="none" stroke="#FFFFFF" stroke-width="2.9602" stroke-linecap="round" stroke-linejoin="round" stroke-miterlimit="10" d="
			M139.116,657.646"/>
		
			<path fill="none" stroke="#FFFFFF" stroke-width="2.9602" stroke-linecap="round" stroke-linejoin="round" stroke-miterlimit="10" d="
			M294.445,486.123c0.647,0,1.294,0,1.942,0"/>
		
			<path fill="none" stroke="#FFFFFF" stroke-width="2.9602" stroke-linecap="round" stroke-linejoin="round" stroke-miterlimit="10" d="
			M121.642,412.614c0.647,0,1.294,0,1.942,0"/>
		
			<path fill="none" stroke="#FFFFFF" stroke-width="2.9602" stroke-linecap="round" stroke-linejoin="round" stroke-miterlimit="10" d="
			M325.51,314.6"/>
		
			<path fill="none" stroke="#FFFFFF" stroke-width="2.9602" stroke-linecap="round" stroke-linejoin="round" stroke-miterlimit="10" d="
			M275.029,204.336"/>
		
			<path fill="none" stroke="#FFFFFF" stroke-width="2.9602" stroke-linecap="round" stroke-linejoin="round" stroke-miterlimit="10" d="
			M407.058,171.665"/>
		
			<path fill="none" stroke="#FFFFFF" stroke-width="2.9602" stroke-linecap="round" stroke-linejoin="round" stroke-miterlimit="10" d="
			M674.999,379.943C674.999,378.257,674.999,378.257,674.999,379.943"/>
		
			<path fill="none" stroke="#FFFFFF" stroke-width="2.9602" stroke-linecap="round" stroke-linejoin="round" stroke-miterlimit="10" d="
			M542.97,310.517"/>
		
			<path fill="none" stroke="#FFFFFF" stroke-width="2.9602" stroke-linecap="round" stroke-linejoin="round" stroke-miterlimit="10" d="
			M552.678,136.952c0.647,0,1.294,0,1.942,0"/>
		
			<path fill="none" stroke="#FFFFFF" stroke-width="2.9602" stroke-linecap="round" stroke-linejoin="round" stroke-miterlimit="10" d="
			M711.889,65.484c0,0.681,0,1.361,0,2.042"/>
		
			<path fill="none" stroke="#FFFFFF" stroke-width="2.9602" stroke-linecap="round" stroke-linejoin="round" stroke-miterlimit="10" d="
			M469.189,40.98c0.647,0.681,1.294,1.361,1.942,2.042"/>
		
			<path fill="none" stroke="#FFFFFF" stroke-width="2.9602" stroke-linecap="round" stroke-linejoin="round" stroke-miterlimit="10" d="
			M317.744,22.603c0-0.681,0-1.361,0-2.042"/>
		
			<path fill="none" stroke="#FFFFFF" stroke-width="2.9602" stroke-linecap="round" stroke-linejoin="round" stroke-miterlimit="10" d="
			M65.336,116.532c-0.647,0-1.294,0-1.942,0"/>
		
			<path fill="none" stroke="#FFFFFF" stroke-width="2.9602" stroke-linecap="round" stroke-linejoin="round" stroke-miterlimit="10" d="
			M36.211,245.174"/>
		
			<path fill="none" stroke="#FFFFFF" stroke-width="2.9602" stroke-linecap="round" stroke-linejoin="round" stroke-miterlimit="10" d="
			M131.35,18.519c0.647-0.681,1.294-1.361,1.942-2.042"/>
	</g>
	<g opacity="0.4">
		
			<path fill="none" stroke="#FFFFFF" stroke-width="2.7185" stroke-linecap="round" stroke-linejoin="round" stroke-miterlimit="10" d="
			M508.713,1188.389c0,0.353,0,0.706,0,1.059"/>
		
			<path fill="none" stroke="#FFFFFF" stroke-width="2.7185" stroke-linecap="round" stroke-linejoin="round" stroke-miterlimit="10" d="
			M481.538,1128.054"/>
		
			<path fill="none" stroke="#FFFFFF" stroke-width="2.7185" stroke-linecap="round" stroke-linejoin="round" stroke-miterlimit="10" d="
			M564.07,1073.012c0.336-0.353,0.671-0.706,1.006-1.059"/>
		
			<path fill="none" stroke="#FFFFFF" stroke-width="2.7185" stroke-linecap="round" stroke-linejoin="round" stroke-miterlimit="10" d="
			M577.154,1172.511"/>
		
			<path fill="none" stroke="#FFFFFF" stroke-width="2.7185" stroke-linecap="round" stroke-linejoin="round" stroke-miterlimit="10" d="
			M649.621,1211.676"/>
		
			<path fill="none" stroke="#FFFFFF" stroke-width="2.7185" stroke-linecap="round" stroke-linejoin="round" stroke-miterlimit="10" d="
			M698.94,1150.283c0.336,0,0.671,0,1.007,0"/>
		
			<path fill="none" stroke="#FFFFFF" stroke-width="2.7185" stroke-linecap="round" stroke-linejoin="round" stroke-miterlimit="10" d="
			M659.686,1042.315c0,0.353,0,0.706,0,1.058"/>
		
			<path fill="none" stroke="#FFFFFF" stroke-width="2.7185" stroke-linecap="round" stroke-linejoin="round" stroke-miterlimit="10" d="
			M590.061,930.081c0.087-0.517-0.943-0.478-0.822,0.031"/>
		
			<path fill="none" stroke="#FFFFFF" stroke-width="2.7185" stroke-linecap="round" stroke-linejoin="round" stroke-miterlimit="10" d="
			M724.102,966.103c0-0.353,0-0.706,0-1.059"/>
		
			<path fill="none" stroke="#FFFFFF" stroke-width="2.7185" stroke-linecap="round" stroke-linejoin="round" stroke-miterlimit="10" d="
			M777.446,992.565"/>
		
			<path fill="none" stroke="#FFFFFF" stroke-width="2.7185" stroke-linecap="round" stroke-linejoin="round" stroke-miterlimit="10" d="
			M753.29,861.311"/>
		
			<path fill="none" stroke="#FFFFFF" stroke-width="2.7185" stroke-linecap="round" stroke-linejoin="round" stroke-miterlimit="10" d="
			M656.667,791.45c-0.336,0.353-0.671,0.706-1.007,1.059"/>
		
			<path fill="none" stroke="#FFFFFF" stroke-width="2.7185" stroke-linecap="round" stroke-linejoin="round" stroke-miterlimit="10" d="
			M365.791,943.874c0,0.353,0,0.706,0,1.058"/>
		
			<path fill="none" stroke="#FFFFFF" stroke-width="2.7185" stroke-linecap="round" stroke-linejoin="round" stroke-miterlimit="10" d="
			M320.499,875.072"/>
		
			<path fill="none" stroke="#FFFFFF" stroke-width="2.7185" stroke-linecap="round" stroke-linejoin="round" stroke-miterlimit="10" d="
			M178.584,918.47c-0.335,0.353-0.671,0.706-1.006,1.058"/>
		
			<path fill="none" stroke="#FFFFFF" stroke-width="2.7185" stroke-linecap="round" stroke-linejoin="round" stroke-miterlimit="10" d="
			M153.421,905.768"/>
		
			<path fill="none" stroke="#FFFFFF" stroke-width="2.7185" stroke-linecap="round" stroke-linejoin="round" stroke-miterlimit="10" d="
			M233.941,1003.151c0-0.353,0-0.706,0-1.058"/>
		
			<path fill="none" stroke="#FFFFFF" stroke-width="2.7185" stroke-linecap="round" stroke-linejoin="round" stroke-miterlimit="10" d="
			M188.649,1139.698c0,0.353,0,0.706,0,1.058"/>
		
			<path fill="none" stroke="#FFFFFF" stroke-width="2.7185" stroke-linecap="round" stroke-linejoin="round" stroke-miterlimit="10" d="
			M159.46,1170.394c-0.335,0.706-0.671,1.411-1.006,2.117"/>
		
			<path fill="none" stroke="#FFFFFF" stroke-width="2.7185" stroke-linecap="round" stroke-linejoin="round" stroke-miterlimit="10" d="
			M133.292,1130.171c0,0.353,0,0.706,0,1.058"/>
		
			<path fill="none" stroke="#FFFFFF" stroke-width="2.7185" stroke-linecap="round" stroke-linejoin="round" stroke-miterlimit="10" d="
			M277.22,1150.283c0.336,0,0.671,0,1.007,0"/>
		
			<path fill="none" stroke="#FFFFFF" stroke-width="2.7185" stroke-linecap="round" stroke-linejoin="round" stroke-miterlimit="10" d="
			M289.298,1196.857"/>
		
			<path fill="none" stroke="#FFFFFF" stroke-width="2.7185" stroke-linecap="round" stroke-linejoin="round" stroke-miterlimit="10" d="
			M249.575,881.589c0,0.625,0,1.25,0,1.875"/>
		
			<path fill="none" stroke="#FFFFFF" stroke-width="2.7185" stroke-linecap="round" stroke-linejoin="round" stroke-miterlimit="10" d="
			M137.241,613.433"/>
		
			<path fill="none" stroke="#FFFFFF" stroke-width="2.7185" stroke-linecap="round" stroke-linejoin="round" stroke-miterlimit="10" d="
			M294.152,607.807"/>
		
			<path fill="none" stroke="#FFFFFF" stroke-width="2.7185" stroke-linecap="round" stroke-linejoin="round" stroke-miterlimit="10" d="
			M317.331,701.568c0,0.625,0,1.25,0,1.875"/>
		
			<path fill="none" stroke="#FFFFFF" stroke-width="2.7185" stroke-linecap="round" stroke-linejoin="round" stroke-miterlimit="10" d="
			M465.327,440.913"/>
		
			<path fill="none" stroke="#FFFFFF" stroke-width="2.7185" stroke-linecap="round" stroke-linejoin="round" stroke-miterlimit="10" d="
			M377.956,371.53c0.594,0,1.189,0,1.783,0"/>
		
			<path fill="none" stroke="#FFFFFF" stroke-width="2.7185" stroke-linecap="round" stroke-linejoin="round" stroke-miterlimit="10" d="
			M524.168,322.774c-0.594,0-1.189,0-1.783,0"/>
		
			<path fill="none" stroke="#FFFFFF" stroke-width="2.7185" stroke-linecap="round" stroke-linejoin="round" stroke-miterlimit="10" d="
			M579.443,392.157c-1.189,0-2.377,0-3.566,0"/>
		
			<path fill="none" stroke="#FFFFFF" stroke-width="2.7185" stroke-linecap="round" stroke-linejoin="round" stroke-miterlimit="10" d="
			M231.744,392.157c0,0.625,0,1.25,0,1.875"/>
		
			<path fill="none" stroke="#FFFFFF" stroke-width="2.7185" stroke-linecap="round" stroke-linejoin="round" stroke-miterlimit="10" d="
			M221.046,365.904c0-0.625,0-1.25,0-1.875"/>
		
			<path fill="none" stroke="#FFFFFF" stroke-width="2.7185" stroke-linecap="round" stroke-linejoin="round" stroke-miterlimit="10" d="
			M149.723,379.03"/>
		
			<path fill="none" stroke="#FFFFFF" stroke-width="2.7185" stroke-linecap="round" stroke-linejoin="round" stroke-miterlimit="10" d="
			M251.358,170.881c0.594,0.625,1.189,1.25,1.783,1.875"/>
		
			<path fill="none" stroke="#FFFFFF" stroke-width="2.7185" stroke-linecap="round" stroke-linejoin="round" stroke-miterlimit="10" d="
			M237.093,139.002"/>
		
			<path fill="none" stroke="#FFFFFF" stroke-width="2.7185" stroke-linecap="round" stroke-linejoin="round" stroke-miterlimit="10" d="
			M377.956,140.878"/>
		
			<path fill="none" stroke="#FFFFFF" stroke-width="2.7185" stroke-linecap="round" stroke-linejoin="round" stroke-miterlimit="10" d="
			M158.638,144.628c0-0.625,0-1.25,0-1.875"/>
		
			<path fill="none" stroke="#FFFFFF" stroke-width="2.7185" stroke-linecap="round" stroke-linejoin="round" stroke-miterlimit="10" d="
			M698.909,159.63"/>
		
			<path fill="none" stroke="#FFFFFF" stroke-width="2.7185" stroke-linecap="round" stroke-linejoin="round" stroke-miterlimit="10" d="
			M795.195,73.37"/>
		
			<path fill="none" stroke="#FFFFFF" stroke-width="2.7185" stroke-linecap="round" stroke-linejoin="round" stroke-miterlimit="10" d="
			M820.158,150.254"/>
		
			<path fill="none" stroke="#FFFFFF" stroke-width="2.7185" stroke-linecap="round" stroke-linejoin="round" stroke-miterlimit="10" d="
			M896.83,362.153"/>
		
			<path fill="none" stroke="#FFFFFF" stroke-width="2.7185" stroke-linecap="round" stroke-linejoin="round" stroke-miterlimit="10" d="
			M977.069,349.027"/>
		
			<path fill="none" stroke="#FFFFFF" stroke-width="2.7185" stroke-linecap="round" stroke-linejoin="round" stroke-miterlimit="10" d="
			M1034.127,384.656c0.594,0,1.189,0,1.783,0"/>
		
			<path fill="none" stroke="#FFFFFF" stroke-width="2.7185" stroke-linecap="round" stroke-linejoin="round" stroke-miterlimit="10" d="
			M850.471,690.317c0,0.625,0,1.25,0,1.875"/>
		
			<path fill="none" stroke="#FFFFFF" stroke-width="2.7185" stroke-linecap="round" stroke-linejoin="round" stroke-miterlimit="10" d="
			M732.788,647.187c0.594,0,1.189,0,1.783,0"/>
		
			<path fill="none" stroke="#FFFFFF" stroke-width="2.7185" stroke-linecap="round" stroke-linejoin="round" stroke-miterlimit="10" d="
			M971.72,613.433"/>
		
			<path fill="none" stroke="#FFFFFF" stroke-width="2.7185" stroke-linecap="round" stroke-linejoin="round" stroke-miterlimit="10" d="
			M962.804,1108.49c0.594-0.625,1.189-1.25,1.783-1.875"/>
		
			<path fill="none" stroke="#FFFFFF" stroke-width="2.7185" stroke-linecap="round" stroke-linejoin="round" stroke-miterlimit="10" d="
			M834.423,1232.255"/>
		
			<path fill="none" stroke="#FFFFFF" stroke-width="2.7185" stroke-linecap="round" stroke-linejoin="round" stroke-miterlimit="10" d="
			M1034.127,1159.121c0,0.625,0,1.25,0,1.875"/>
		
			<path fill="none" stroke="#FFFFFF" stroke-width="2.7185" stroke-linecap="round" stroke-linejoin="round" stroke-miterlimit="10" d="
			M1096.535,945.346c0.594,0,1.189,0,1.783,0"/>
		
			<path fill="none" stroke="#FFFFFF" stroke-width="2.7185" stroke-linecap="round" stroke-linejoin="round" stroke-miterlimit="10" d="
			M1137.545,849.71c-0.594,0-1.189,0-1.783,0"/>
		
			<path fill="none" stroke="#FFFFFF" stroke-width="2.7185" stroke-linecap="round" stroke-linejoin="round" stroke-miterlimit="10" d="
			M1267.71,999.728"/>
		
			<path fill="none" stroke="#FFFFFF" stroke-width="2.7185" stroke-linecap="round" stroke-linejoin="round" stroke-miterlimit="10" d="
			M1392.525,924.719"/>
		
			<path fill="none" stroke="#FFFFFF" stroke-width="2.7185" stroke-linecap="round" stroke-linejoin="round" stroke-miterlimit="10" d="
			M1180.339,988.477"/>
		
			<path fill="none" stroke="#FFFFFF" stroke-width="2.7185" stroke-linecap="round" stroke-linejoin="round" stroke-miterlimit="10" d="
			M1363.996,1069.111c-1.783,0-3.566,0-5.349,0"/>
		
			<path fill="none" stroke="#FFFFFF" stroke-width="2.7185" stroke-linecap="round" stroke-linejoin="round" stroke-miterlimit="10" d="
			M1214.218,1080.362c0.594,0,1.189,0,1.783,0"/>
		
			<path fill="none" stroke="#FFFFFF" stroke-width="2.7185" stroke-linecap="round" stroke-linejoin="round" stroke-miterlimit="10" d="
			M1560.134,1136.619"/>
		
			<path fill="none" stroke="#FFFFFF" stroke-width="2.7185" stroke-linecap="round" stroke-linejoin="round" stroke-miterlimit="10" d="
			M1647.505,1134.744"/>
		
			<path fill="none" stroke="#FFFFFF" stroke-width="2.7185" stroke-linecap="round" stroke-linejoin="round" stroke-miterlimit="10" d="
			M1499.509,945.346"/>
		
			<path fill="none" stroke="#FFFFFF" stroke-width="2.7185" stroke-linecap="round" stroke-linejoin="round" stroke-miterlimit="10" d="
			M1643.938,950.972c-0.594,0.625-1.189,1.25-1.783,1.875"/>
		
			<path fill="none" stroke="#FFFFFF" stroke-width="2.7185" stroke-linecap="round" stroke-linejoin="round" stroke-miterlimit="10" d="
			M1754.489,980.976"/>
		
			<path fill="none" stroke="#FFFFFF" stroke-width="2.7185" stroke-linecap="round" stroke-linejoin="round" stroke-miterlimit="10" d="
			M1747.357,1070.986c-0.594-0.625-1.189-1.25-1.783-1.875"/>
		
			<path fill="none" stroke="#FFFFFF" stroke-width="2.7185" stroke-linecap="round" stroke-linejoin="round" stroke-miterlimit="10" d="
			M1831.161,935.97"/>
		
			<path fill="none" stroke="#FFFFFF" stroke-width="2.7185" stroke-linecap="round" stroke-linejoin="round" stroke-miterlimit="10" d="
			M1775.886,1213.503"/>
		
			<path fill="none" stroke="#FFFFFF" stroke-width="2.7185" stroke-linecap="round" stroke-linejoin="round" stroke-miterlimit="10" d="
			M1979.156,744.698c0,0.625,0,1.25,0,1.875"/>
		
			<path fill="none" stroke="#FFFFFF" stroke-width="2.7185" stroke-linecap="round" stroke-linejoin="round" stroke-miterlimit="10" d="
			M2052.262,725.946c0.594,0,1.189,0,1.783,0"/>
		
			<path fill="none" stroke="#FFFFFF" stroke-width="2.7185" stroke-linecap="round" stroke-linejoin="round" stroke-miterlimit="10" d="
			M1950.627,654.688c-0.594,0-1.189,0-1.783,0"/>
		
			<path fill="none" stroke="#FFFFFF" stroke-width="2.7185" stroke-linecap="round" stroke-linejoin="round" stroke-miterlimit="10" d="
			M2034.432,577.804c0,0.625,0,1.25,0,1.875"/>
		
			<path fill="none" stroke="#FFFFFF" stroke-width="2.7185" stroke-linecap="round" stroke-linejoin="round" stroke-miterlimit="10" d="
			M1957.759,309.647C1959.231,309.647,1959.231,309.647,1957.759,309.647"/>
		
			<path fill="none" stroke="#FFFFFF" stroke-width="2.7185" stroke-linecap="round" stroke-linejoin="round" stroke-miterlimit="10" d="
			M1890.003,339.651C1891.474,339.651,1891.474,339.651,1890.003,339.651"/>
		
			<path fill="none" stroke="#FFFFFF" stroke-width="2.7185" stroke-linecap="round" stroke-linejoin="round" stroke-miterlimit="10" d="
			M1813.33,459.665C1813.33,461.213,1813.33,461.213,1813.33,459.665"/>
		
			<path fill="none" stroke="#FFFFFF" stroke-width="2.7185" stroke-linecap="round" stroke-linejoin="round" stroke-miterlimit="10" d="
			M1742.007,140.878"/>
		
			<path fill="none" stroke="#FFFFFF" stroke-width="2.7185" stroke-linecap="round" stroke-linejoin="round" stroke-miterlimit="10" d="
			M1959.542,58.368c-0.594,0-1.189,0-1.783,0"/>
		
			<path fill="none" stroke="#FFFFFF" stroke-width="2.7185" stroke-linecap="round" stroke-linejoin="round" stroke-miterlimit="10" d="
			M2070.093,262.767c-0.594,0-1.189,0-1.783,0"/>
		
			<path fill="none" stroke="#FFFFFF" stroke-width="2.7185" stroke-linecap="round" stroke-linejoin="round" stroke-miterlimit="10" d="
			M2161.03,146.503"/>
		
			<path fill="none" stroke="#FFFFFF" stroke-width="2.7185" stroke-linecap="round" stroke-linejoin="round" stroke-miterlimit="10" d="
			M2209.173,165.255"/>
		
			<path fill="none" stroke="#FFFFFF" stroke-width="2.7185" stroke-linecap="round" stroke-linejoin="round" stroke-miterlimit="10" d="
			M2243.051,305.897c0,0.625,0,1.25,0,1.875"/>
		
			<path fill="none" stroke="#FFFFFF" stroke-width="2.7185" stroke-linecap="round" stroke-linejoin="round" stroke-miterlimit="10" d="
			M2401.745,324.649"/>
		
			<path fill="none" stroke="#FFFFFF" stroke-width="2.7185" stroke-linecap="round" stroke-linejoin="round" stroke-miterlimit="10" d="
			M2457.02,418.41"/>
		
			<path fill="none" stroke="#FFFFFF" stroke-width="2.7185" stroke-linecap="round" stroke-linejoin="round" stroke-miterlimit="10" d="
			M2487.332,319.023"/>
		
			<path fill="none" stroke="#FFFFFF" stroke-width="2.7185" stroke-linecap="round" stroke-linejoin="round" stroke-miterlimit="10" d="
			M2528.343,142.753"/>
		
			<path fill="none" stroke="#FFFFFF" stroke-width="2.7185" stroke-linecap="round" stroke-linejoin="round" stroke-miterlimit="10" d="
			M2581.835,56.493c-0.594,0-1.189,0-1.783,0"/>
		
			<path fill="none" stroke="#FFFFFF" stroke-width="2.7185" stroke-linecap="round" stroke-linejoin="round" stroke-miterlimit="10" d="
			M2647.809,197.134c0,0.625,0,1.25,0,1.875"/>
		
			<path fill="none" stroke="#FFFFFF" stroke-width="2.7185" stroke-linecap="round" stroke-linejoin="round" stroke-miterlimit="10" d="
			M2710.216,152.129c0-0.625,0-1.25,0-1.875"/>
		
			<path fill="none" stroke="#FFFFFF" stroke-width="2.7185" stroke-linecap="round" stroke-linejoin="round" stroke-miterlimit="10" d="
			M2676.338,364.029"/>
		
			<path fill="none" stroke="#FFFFFF" stroke-width="2.7185" stroke-linecap="round" stroke-linejoin="round" stroke-miterlimit="10" d="
			M2606.798,349.027c0.594,0.625,1.189,1.25,1.783,1.875"/>
		
			<path fill="none" stroke="#FFFFFF" stroke-width="2.7185" stroke-linecap="round" stroke-linejoin="round" stroke-miterlimit="10" d="
			M2647.809,439.037c0.594,0,1.189,0,1.783,0"/>
		
			<path fill="none" stroke="#FFFFFF" stroke-width="2.7185" stroke-linecap="round" stroke-linejoin="round" stroke-miterlimit="10" d="
			M2387.48,688.441c-1.189,0-2.377,0-3.566,0"/>
		
			<path fill="none" stroke="#FFFFFF" stroke-width="2.7185" stroke-linecap="round" stroke-linejoin="round" stroke-miterlimit="10" d="
			M2317.94,579.679"/>
		
			<path fill="none" stroke="#FFFFFF" stroke-width="2.7185" stroke-linecap="round" stroke-linejoin="round" stroke-miterlimit="10" d="
			M2225.22,697.818c-0.594,0.625-1.189,1.25-1.783,1.875"/>
		
			<path fill="none" stroke="#FFFFFF" stroke-width="2.7185" stroke-linecap="round" stroke-linejoin="round" stroke-miterlimit="10" d="
			M2185.993,609.682c-0.594-0.625-1.189-1.25-1.783-1.875"/>
		
			<path fill="none" stroke="#FFFFFF" stroke-width="2.7185" stroke-linecap="round" stroke-linejoin="round" stroke-miterlimit="10" d="
			M2253.75,598.431"/>
		
			<path fill="none" stroke="#FFFFFF" stroke-width="2.7185" stroke-linecap="round" stroke-linejoin="round" stroke-miterlimit="10" d="
			M2301.893,755.949"/>
		
			<path fill="none" stroke="#FFFFFF" stroke-width="2.7185" stroke-linecap="round" stroke-linejoin="round" stroke-miterlimit="10" d="
			M2519.427,750.324c-0.594,0-1.189,0-1.783,0"/>
		
			<path fill="none" stroke="#FFFFFF" stroke-width="2.7185" stroke-linecap="round" stroke-linejoin="round" stroke-miterlimit="10" d="
			M2599.666,632.185"/>
		
			<path fill="none" stroke="#FFFFFF" stroke-width="2.7185" stroke-linecap="round" stroke-linejoin="round" stroke-miterlimit="10" d="
			M2457.02,789.703c-0.594,0-1.189,0-1.783,0"/>
		
			<path fill="none" stroke="#FFFFFF" stroke-width="2.7185" stroke-linecap="round" stroke-linejoin="round" stroke-miterlimit="10" d="
			M2615.714,857.211c-0.594,0-1.189,0-1.783,0"/>
		
			<path fill="none" stroke="#FFFFFF" stroke-width="2.7185" stroke-linecap="round" stroke-linejoin="round" stroke-miterlimit="10" d="
			M2428.491,947.222"/>
		
			<path fill="none" stroke="#FFFFFF" stroke-width="2.7185" stroke-linecap="round" stroke-linejoin="round" stroke-miterlimit="10" d="
			M2474.851,1048.484"/>
		
			<path fill="none" stroke="#FFFFFF" stroke-width="2.7185" stroke-linecap="round" stroke-linejoin="round" stroke-miterlimit="10" d="
			M2353.602,1078.487"/>
		
			<path fill="none" stroke="#FFFFFF" stroke-width="2.7185" stroke-linecap="round" stroke-linejoin="round" stroke-miterlimit="10" d="
			M2107.538,887.215C2107.538,888.763,2107.538,888.763,2107.538,887.215"/>
		
			<path fill="none" stroke="#FFFFFF" stroke-width="2.7185" stroke-linecap="round" stroke-linejoin="round" stroke-miterlimit="10" d="
			M2228.787,950.972"/>
		
			<path fill="none" stroke="#FFFFFF" stroke-width="2.7185" stroke-linecap="round" stroke-linejoin="round" stroke-miterlimit="10" d="
			M2219.871,1110.366c-0.594,0-1.189,0-1.783,0"/>
		
			<path fill="none" stroke="#FFFFFF" stroke-width="2.7185" stroke-linecap="round" stroke-linejoin="round" stroke-miterlimit="10" d="
			M2073.659,1175.998c0-0.625,0-1.25,0-1.875"/>
		
			<path fill="none" stroke="#FFFFFF" stroke-width="2.7185" stroke-linecap="round" stroke-linejoin="round" stroke-miterlimit="10" d="
			M2296.543,1198.501c-0.594-0.625-1.189-1.25-1.783-1.875"/>
		
			<path fill="none" stroke="#FFFFFF" stroke-width="2.7185" stroke-linecap="round" stroke-linejoin="round" stroke-miterlimit="10" d="
			M2435.623,1215.378c0,0.625,0,1.25,0,1.875"/>
		
			<path fill="none" stroke="#FFFFFF" stroke-width="2.7185" stroke-linecap="round" stroke-linejoin="round" stroke-miterlimit="10" d="
			M2667.423,1129.118c0.594,0,1.189,0,1.783,0"/>
		
			<path fill="none" stroke="#FFFFFF" stroke-width="2.7185" stroke-linecap="round" stroke-linejoin="round" stroke-miterlimit="10" d="
			M2694.169,1010.979"/>
		
			<path fill="none" stroke="#FFFFFF" stroke-width="2.7185" stroke-linecap="round" stroke-linejoin="round" stroke-miterlimit="10" d="
			M2606.798,1219.128c-0.594,0.625-1.189,1.25-1.783,1.875"/>
	</g>
</g>
<g>
	<circle opacity="0.05" fill="#E5EDD4" cx="1036.137" cy="998.091" r="626.622"/>
	<path opacity="0.05" fill="#E5EDD4" d="M455.75,1615.666h1160.775c164.941-154.647,267.987-374.427,267.987-618.263
		c0-468.164-379.83-847.686-848.374-847.686S187.763,529.239,187.763,997.402C187.763,1241.238,290.808,1461.019,455.75,1615.666z"
		/>
	<circle opacity="0.05" fill="#E5EDD4" cx="1036.137" cy="998.091" r="395.609"/>
	<g>
		<circle fill="#FF846E" cx="1036.137" cy="998.091" r="242.563"/>
		<ellipse fill="#FC927E" cx="1102.65" cy="998.091" rx="176.05" ry="233.329"/>
		<ellipse fill="#FC9E8D" cx="1164.787" cy="998.091" rx="113.913" ry="205.67"/>
		<ellipse fill="#FCB3A6" cx="1227.235" cy="998.091" rx="51.465" ry="149.397"/>
		<g opacity="0.37">
			<ellipse fill="#ED6349" cx="903.111" cy="949.081" rx="33.256" ry="38.507"/>
			<ellipse fill="#ED6349" cx="1090.398" cy="873.817" rx="54.261" ry="42.008"/>
			<ellipse fill="#ED6349" cx="1079.021" cy="1080.357" rx="21.879" ry="29.756"/>
			<ellipse fill="#ED6349" cx="950.37" cy="1131.117" rx="35.007" ry="31.506"/>
			<circle fill="#ED6349" cx="1023.01" cy="993.715" r="13.128"/>
			<ellipse fill="#ED6349" cx="1249.679" cy="1043.6" rx="22.754" ry="36.757"/>
			<ellipse fill="#ED6349" cx="1110.527" cy="1152.996" rx="48.134" ry="42.883"/>
			<ellipse fill="#ED6349" cx="1180.54" cy="950.832" rx="11.377" ry="15.753"/>
		</g>
	</g>
</g>
<g>
	<g opacity="0.4">
		<path fill="#8C1A5C" d="M2168.893,0.039h-379.542c-70.116,87.865-71.624,215.711,2.86,305.769
			c85.392,103.247,238.314,117.721,341.561,32.329C2235.873,253.692,2251.146,103.216,2168.893,0.039z"/>
	</g>
	<g>
		<path fill="#8C1A5C" d="M2143.311,15.424c-4.474-5.41-9.165-10.533-14.04-15.385h-300.219
			c-77.449,76.736-84.879,201.283-14.052,286.919c74.982,90.66,209.262,103.37,299.922,28.388
			C2205.583,240.364,2218.293,106.085,2143.311,15.424z"/>
	</g>
	<path fill="#B52177" d="M1850.824,240.844c-57.939-70.053-63.508-166.145-21.225-240.805h-0.544
		c-77.45,76.736-84.881,201.282-14.053,286.919c74.982,90.66,209.262,103.37,299.922,28.388
		c20.219-16.723,36.558-36.397,48.915-57.877c-4.167,4.062-8.529,7.988-13.093,11.763
		C2060.085,344.214,1925.806,331.504,1850.824,240.844z"/>
	<g opacity="0.1">
		<g>
			<path d="M1971.062,147.586c12.886-5.071,29.275,3.03,33.073,16.347c2.976,10.435-0.987,22.16,3.114,32.206
				c3.003,7.355,10.019,12.545,17.607,14.899c7.167,2.223,15.391,2.45,20.997,7.439c6.024,5.36,6.868,14.929,3.689,22.34
				c-3.178,7.411-9.596,12.953-16.403,17.276c-12.672,8.048-27.677,12.797-42.666,11.977s-29.854-7.527-39.295-19.199
				c-13.497-16.686-14.235-40.486-9.749-61.474c3.148-14.724,9.711-30.309,23.276-36.844"/>
		</g>
		<g>
			<path d="M2073.533,160.79c-2.096,1.8-4.18,3.682-5.641,6.027c-1.461,2.345-2.243,5.244-1.523,7.911
				c0.378,1.398,1.145,2.664,2.044,3.799c3.602,4.546,9.818,7.123,15.439,5.697c5.622-1.426,10.013-7.226,9.162-12.963
				c-0.656-4.419-4.115-8.07-8.194-9.892c-4.079-1.822-8.698-2.051-13.152-1.701"/>
		</g>
		<g>
			<path d="M2089.525,263.54c-0.56-1-2.059-0.057-2.712,0.885c-3.322,4.787-6.746,9.836-7.405,15.625
				c-0.156,1.371-0.143,2.804,0.405,4.071c1.493,3.451,6.415,4.151,9.753,2.419c3.338-1.732,5.472-5.072,7.543-8.211
				c1.964-2.975,4.049-5.986,4.871-9.455s0.076-7.574-2.778-9.711c-2.854-2.136-7.858-1.043-8.713,2.418"/>
		</g>
		<g>
			<path d="M1908.411,340.987c-4.836-6.165-9.191-13.039-10.437-20.775c-1.247-7.735,1.248-16.488,7.754-20.852
				c3.34-2.24,7.386-3.152,11.366-3.726c5.707-0.823,11.648-1.02,17.123,0.786c5.476,1.807,10.439,5.906,12.083,11.432
				c1.439,4.836,0.237,10.002-0.092,15.036c-0.317,4.849,0.197,9.752,1.514,14.43c1.311,4.659,3.093,10.511-0.585,13.658
				c-1.727,1.478-4.155,1.758-6.426,1.853C1926.709,353.417,1916.584,351.976,1908.411,340.987"/>
		</g>
		<g>
			<path d="M1836.389,193.455c-2.24,7.896-10.996,12.465-19.202,12.61c-1.787,0.032-3.586-0.102-5.317-0.547
				c-5.956-1.531-10.626-6.943-11.592-13.017c-0.966-6.074,1.655-12.508,6.381-16.444c3.544-2.951,8.013-4.507,12.376-6.004
				c4.35-1.492,9.165-2.98,13.426-1.249c2.743,1.114,4.806,3.407,6.742,5.648c1.534,1.775,3.145,3.828,2.974,6.168
				c-0.153,2.099-1.697,3.783-2.886,5.52c-1.189,1.737-2.057,4.134-0.859,5.865"/>
		</g>
		<g>
			<path d="M1892.625,207.818c-3.152,2.771-5.778,6.139-7.697,9.871c-1.652,3.214-2.795,6.808-2.471,10.407
				c0.323,3.6,2.327,7.183,5.606,8.702c5.031,2.329,10.947-0.769,14.902-4.655c3.403-3.344,6.244-7.557,6.741-12.303
				s-1.889-9.992-6.342-11.704c-2.609-1.003-5.513-0.72-8.292-0.422"/>
		</g>
		<g>
			<path d="M1867.37,136.16c-13.871,1.279-27.388-8.78-32.015-21.919s-1.162-28.305,7.088-39.528
				c8.25-11.224,20.765-18.786,34.004-23.118c13.211-4.322,29.594-4.903,39.102,5.236c7.149,7.623,8.244,19.285,6.163,29.527
				c-2.081,10.242-6.853,19.711-10.136,29.633c-1.247,3.769-2.307,7.666-4.446,11.011c-3.769,5.894-10.551,9.373-17.453,10.514
				c-6.902,1.141-13.976,0.199-20.842-1.142"/>
		</g>
		<g>
			<path d="M1969.616,68.272c-8.156,4.945-14.536,12.754-17.755,21.732c-1.754,4.892-2.44,10.785,0.699,14.927
				c2.214,2.921,5.895,4.345,9.495,5.029c11.53,2.192,23.492-1.891,33.341-8.274c5.357-3.472,10.455-7.877,12.83-13.802
				c0.763-1.903,1.228-3.966,1.004-6.004c-0.254-2.318-1.38-4.457-2.739-6.352c-7.628-10.639-23.778-13.979-35-7.239"/>
		</g>
		<g>
			<path d="M1877.439,0.039c0.339,1.719,1.349,3.428,2.644,4.635c2.968,2.768,7.172,4.037,11.222,3.784
				c4.051-0.253,7.936-1.942,11.164-4.402c1.425-1.086,2.777-2.417,3.513-4.017H1877.439z"/>
		</g>
		<g>
			<path d="M2012.784,0.039c-2.258,6.192-2.663,13.07-0.47,19.253c2.745,7.737,9.114,13.617,15.807,18.37
				c3.526,2.504,7.234,4.805,11.276,6.342c15.592,5.929,35.092-1.851,42.32-16.885c4.047-8.417,3.914-18.419,0.493-27.08H2012.784z"
				/>
		</g>
		<g>
			<path d="M2134.333,74.4c-5.836,3.381-8.173,10.549-9.436,17.175c-0.606,3.176-1.071,6.486-0.244,9.611
				c1.328,5.02,5.757,8.642,10.421,10.924c3.395,1.661,7.49,2.781,10.881,1.115c4.347-2.136,5.547-7.751,5.574-12.594
				c0.027-4.807-0.588-9.618-1.823-14.264c-0.822-3.092-1.965-6.193-4.095-8.58s-5.426-3.941-8.554-3.27"/>
		</g>
		<g>
			<path d="M2191.435,169.003c-4.08-3.065-8.933-3.89-13.977-4.666c-4.821-0.742-9.818-1.126-14.521,0.168
				s-9.101,4.535-10.668,9.154c-0.95,2.801-0.805,5.844-0.542,8.79c0.987,11.037,2.578,17.686,10.629,25.298
				c6.406,6.057,19.861,7.917,19.861,7.917C2185.35,206.86,2190.385,184.232,2191.435,169.003"/>
		</g>
	</g>
</g>
<g>
	
		<ellipse transform="matrix(0.8095 -0.5871 0.5871 0.8095 72.8591 1518.9291)" opacity="0.4" fill="#811B82" cx="2377.142" cy="647.187" rx="99.795" ry="100.812"/>
	
		<ellipse transform="matrix(0.8095 -0.5871 0.5871 0.8095 72.8591 1518.9291)" fill="#811B82" cx="2377.142" cy="647.187" rx="87.687" ry="88.581"/>
	<g>
		<g>
			<g>
				<path fill="#610F60" d="M2370.194,604.159L2370.194,604.159c2.799,3.859,8.164,4.741,11.983,1.971l6.507-4.719
					c3.35-2.43,8.057-1.656,10.511,1.729l0,0c2.455,3.385,1.729,8.099-1.622,10.529l-18.442,13.376
					c-2.916,2.114-3.547,6.216-1.411,9.161l0,0c2.136,2.945,6.231,3.618,9.146,1.504l40.889-29.656
					c3.263-2.367,7.847-1.613,10.238,1.684v0c2.391,3.297,1.684,7.888-1.58,10.255l-13.475,9.773
					c-3.263,2.367-3.971,6.958-1.58,10.255l0,0c2.391,3.297,6.975,4.051,10.239,1.684l29.191-21.172
					c-2.819-8.662-7.02-17.045-12.663-24.827c-10.272-14.163-23.913-24.416-38.993-30.448l-37.089,26.9
					C2368.223,594.927,2367.396,600.3,2370.194,604.159z"/>
			</g>
			<g>
				<path fill="#610F60" d="M2409.043,672.117L2409.043,672.117c-2.799-3.859-8.164-4.741-11.983-1.971l-40.259,29.199
					c-2.916,2.114-7.01,1.441-9.146-1.504l-1.155-1.592c-2.136-2.945-1.504-7.047,1.411-9.161l21.326-15.467
					c2.915-2.114,3.547-6.216,1.411-9.161v0c-2.136-2.945-6.231-3.618-9.146-1.504l-42.537,30.851
					c-2.915,2.114-7.01,1.441-9.146-1.504l-0.924-1.274c-2.136-2.945-1.504-7.047,1.411-9.161l22.315-16.184
					c3.263-2.367,3.971-6.958,1.58-10.255l0,0c-2.391-3.297-6.975-4.051-10.239-1.684l-30.467,22.097
					c2.819,8.662,7.019,17.045,12.663,24.827c10.272,14.163,23.913,24.416,38.993,30.448l62.043-44.998
					C2411.013,681.349,2411.841,675.975,2409.043,672.117z"/>
			</g>
			<g opacity="0.5">
				<path fill="#B125B3" d="M2381.146,735.408c-18.465-6.388-35.265-18.343-47.65-35.42c-31.873-43.946-22.445-105.149,21.058-136.7
					c1.193-0.865,2.401-1.694,3.62-2.496c-11.59,2.447-22.851,7.299-33.039,14.688c-39.203,28.433-47.699,83.586-18.977,123.189
					C2324.23,723.586,2352.73,736.406,2381.146,735.408z"/>
			</g>
		</g>
	</g>
</g>
<g>
	
		<ellipse transform="matrix(0.2751 -0.9614 0.9614 0.2751 57.9897 655.019)" opacity="0.4" fill="#962434" cx="463.364" cy="289.054" rx="152.179" ry="150.644"/>
	
		<ellipse transform="matrix(0.2751 -0.9614 0.9614 0.2751 57.9897 655.019)" fill="#B02A3D" cx="463.364" cy="289.054" rx="133.716" ry="132.367"/>
	<path fill="#962434" d="M433,397.964c-22.152-3.077-44.682-14.479-66.892-17.674c15.835,17.226,36.397,30.432,60.47,37.32
		c49.028,14.029,99.584-1.811,132.579-36.772C516.719,386.841,476.66,403.659,433,397.964z"/>
	<path fill="#962434" d="M593.293,314.415c-4.941,0.628-10.001,1.587-15.293,2.549c-51,9-96,36-149,24c-32-7-57-27-88-36
		c-3.082-0.822-6.252-1.421-9.468-1.82c0.683,6.82,1.896,13.533,3.588,20.092c6.857,0.342,13.568,1.834,19.88,3.728
		c26,7,48,22,74,29c51,12,98-10,147-23c4.291-1.287,8.721-2.25,13.189-2.833c0.501-1.541,0.985-3.092,1.435-4.662
		C591.677,321.789,592.563,318.102,593.293,314.415z"/>
	<path fill="#962434" d="M494,223.964c-7,1-15,1-22,0c-35.058-5.335-75.924-26.928-110.647-19.636
		c-9.798,11.964-17.673,25.812-22.997,41.195c41.098-4.205,80.672,22.752,121.644,29.441c25,4,48-2,71-10
		c17.88-6.765,37.162-16.566,56.716-22.632c-5.004-13.682-12.201-26.465-21.299-37.797C542.323,210.982,518.471,221.184,494,223.964
		z"/>
	<g opacity="0.5">
		<g>
			<g opacity="0.53">
				<path fill="#FF3D58" d="M564.464,202.16c9.601,27.888,11.037,58.981,2.276,89.597
					c-22.545,78.787-104.046,124.565-182.038,102.247c-2.139-0.612-4.248-1.277-6.337-1.977
					c13.698,11.494,29.947,20.357,48.213,25.584c70.284,20.111,143.73-21.142,164.046-92.142
					C603.407,280.797,592.105,234.997,564.464,202.16z"/>
			</g>
		</g>
	</g>
</g>
<linearGradient id="SVGID_2_" gradientUnits="userSpaceOnUse" x1="1425.0001" y1="1802.5734" x2="1425.0001" y2="1277.7428">
	<stop  offset="0" style="stop-color:#44164D"/>
	<stop  offset="0.1342" style="stop-color:#48174D"/>
	<stop  offset="0.2803" style="stop-color:#56184E"/>
	<stop  offset="0.432" style="stop-color:#6B1B4F"/>
	<stop  offset="0.5877" style="stop-color:#8A1F50"/>
	<stop  offset="0.7464" style="stop-color:#B12452"/>
	<stop  offset="0.9054" style="stop-color:#E02A55"/>
	<stop  offset="0.9964" style="stop-color:#FF2E56"/>
</linearGradient>
<rect x="0" y="1277.147" fill="url(#SVGID_2_)" width="2850" height="522.853"/>
<g>
	<g>
		<g>
			<polygon fill="#821D41" points="0,1026.733 190.703,1082.344 297.158,1054.539 363.892,1110.944 432.816,1101.685 
				464.759,1105.557 549.937,1062.967 700.936,1121.044 792.891,1081.358 846.128,1073.889 882.909,1058.128 934.21,1102.653 
				1014.549,1127.819 1058.107,1149.114 1155.869,1102.653 1181.035,1109.428 1274.926,1079.422 1340.746,1118.14 
				1474.322,1078.454 1521.751,1076.518 1554.661,1059.095 1610.801,1087.924 1703.724,1103.621 1822.781,1042.641 
				1911.831,1106.525 1952.485,1087.924 1993.138,1092.005 2045.407,1049.416 2094.73,1094.909 2094.73,1273.135 0,1273.135 			"/>
		</g>
		<polygon fill="#FF5059" points="2045.407,1049.416 1993.138,1092.005 1952.485,1087.924 1911.831,1106.525 1822.781,1042.64 
			1703.724,1103.621 1610.801,1087.924 1554.661,1059.095 1521.751,1076.518 1474.322,1078.454 1340.746,1118.14 1274.926,1079.422 
			1181.035,1109.428 1155.869,1102.653 1058.107,1149.114 1014.549,1127.819 934.21,1102.653 882.909,1058.127 846.128,1073.888 
			792.891,1081.358 700.936,1121.044 549.937,1062.967 464.759,1105.557 432.816,1101.685 363.892,1110.944 297.158,1054.539 
			190.703,1082.344 0,1026.733 0,1040.096 78.269,1066.974 129.64,1112.508 139.565,1102 191.52,1149.934 162.915,1089.741 
			294.264,1064.639 277.918,1092.984 305.356,1069.309 325.204,1086.238 320.534,1092.984 301.853,1100.833 329.29,1097.33 
			335.128,1092.984 356.144,1113.675 304.772,1128.27 431.45,1108.422 441.374,1125.351 432.618,1143.448 455.969,1129.437 
			452.466,1114.259 474.065,1121.265 464.141,1143.448 549.372,1073.395 676.05,1128.854 625.262,1149.934 794.556,1090.325 
			842.425,1083.319 880.954,1065.806 931.158,1107.838 977.777,1131.027 981,1126.013 1001.054,1155.737 1001.054,1131.743 
			1015.379,1136.04 1050.474,1153.946 1002.128,1173.642 1103.833,1138.905 1099.894,1149.934 1130.333,1123.506 1128.185,1131.743 
			1156.476,1111.33 1172.591,1114.195 1146.807,1128.52 1223.802,1104.838 1223.802,1114.912 1254.599,1092.35 1254.599,1104.838 
			1271.073,1092.35 1284.323,1102.019 1284.323,1088.053 1334.817,1120.641 1306.526,1135.682 1473.05,1082.323 1515.665,1089.127 
			1553.983,1064.417 1553.983,1079.816 1560.631,1069.064 1562.724,1075.761 1568.165,1072.691 1607.654,1090.678 
			1699.793,1105.236 1679.063,1116.793 1817.873,1050.904 1905.668,1108.055 1881.978,1119.804 1921.269,1105.936 1925.506,1108.44 
			1936.099,1100.188 1938.218,1103.818 1952.086,1091.876 1985.47,1096.637 1968.062,1118.247 2020.286,1078.028 2017.885,1091.835 
			2036.493,1068.424 2037.094,1079.829 2050.3,1066.023 2094.73,1094.909 		"/>
	</g>
	<g>
		<g>
			<polygon fill="#741937" points="2094.73,1149.935 1904.027,1178.646 1797.572,1164.29 1730.838,1193.411 1661.913,1188.631 
				1629.971,1190.63 1544.792,1168.641 1393.794,1198.625 1301.839,1178.136 1248.602,1174.28 1211.821,1166.143 1160.52,1189.13 
				1080.181,1202.123 1036.623,1213.117 938.861,1189.13 913.695,1192.629 819.804,1177.137 753.984,1197.126 620.408,1176.637 
				572.979,1175.638 540.069,1166.643 483.929,1181.526 391.006,1189.63 271.949,1158.147 182.899,1191.129 142.245,1181.526 
				101.592,1183.633 49.323,1161.645 0,1185.133 0,1277.147 2094.73,1277.147 			"/>
		</g>
		<polygon fill="#BF3D42" points="49.323,1161.645 101.592,1183.633 142.245,1181.526 182.899,1191.129 271.949,1158.147 
			391.006,1189.63 483.929,1181.526 540.069,1166.643 572.979,1175.638 620.408,1176.637 753.984,1197.126 819.804,1177.137 
			913.695,1192.628 938.861,1189.13 1036.623,1213.117 1080.181,1202.123 1160.52,1189.13 1211.821,1166.143 1248.602,1174.28 
			1301.839,1178.136 1393.794,1198.625 1544.792,1168.641 1629.971,1190.63 1661.913,1188.631 1730.838,1193.411 1797.572,1164.29 
			1904.027,1178.646 2094.73,1149.935 2094.73,1156.834 2016.461,1170.71 1965.089,1194.218 1955.165,1188.793 1903.21,1213.541 
			1931.814,1182.464 1800.466,1169.504 1816.812,1184.139 1789.374,1171.916 1769.526,1180.656 1774.196,1184.139 
			1792.877,1188.191 1765.44,1186.382 1759.602,1184.139 1738.586,1194.821 1789.958,1202.356 1663.28,1192.109 1653.356,1200.849 
			1662.112,1210.192 1638.761,1202.959 1642.264,1195.123 1620.664,1198.739 1630.589,1210.192 1545.358,1174.025 1418.68,1202.657 
			1469.468,1213.541 1300.174,1182.766 1252.305,1179.149 1213.776,1170.107 1163.572,1191.807 1116.953,1203.779 1113.73,1201.191 
			1093.676,1216.537 1093.676,1204.149 1079.351,1206.368 1044.256,1215.612 1092.601,1225.781 990.897,1207.847 994.836,1213.541 
			964.396,1199.897 966.545,1204.149 938.254,1193.61 922.139,1195.09 947.923,1202.485 870.928,1190.259 870.928,1195.459 
			840.13,1183.812 840.13,1190.259 823.657,1183.812 810.407,1188.803 810.407,1181.593 759.913,1198.418 788.204,1206.183 
			621.68,1178.635 579.065,1182.147 540.746,1169.39 540.746,1177.34 534.099,1171.789 532.006,1175.246 526.565,1173.662 
			487.076,1182.948 394.937,1190.464 415.667,1196.431 276.857,1162.413 189.062,1191.919 212.752,1197.985 173.461,1190.826 
			169.224,1192.118 158.63,1187.858 156.512,1189.732 142.644,1183.567 109.26,1186.025 126.668,1197.181 74.444,1176.417 
			76.845,1183.545 58.237,1171.459 57.636,1177.347 44.43,1170.219 0,1185.133 		"/>
	</g>
	<g>
		<polygon fill="#5F162D" points="0,1225.781 109.315,1213.541 209.294,1238.653 265.072,1238.653 292.434,1251.282 
			380.103,1236.264 445.034,1262.858 560.799,1262.858 727.08,1247.072 897.57,1262.858 1047.365,1277.147 1198.559,1261.806 
			1296.433,1263.911 1362.735,1245.344 1473.238,1245.344 1545.854,1260.753 1604.79,1245.344 1660.804,1252.334 1750.022,1274.435 
			1899.788,1254.461 1958.733,1277.147 0,1277.147 		"/>
		<g>
			<polygon fill="#9E373C" points="1198.559,1269.024 1296.433,1271.128 1362.735,1252.562 1473.238,1252.562 1545.854,1267.971 
				1604.79,1252.562 1660.804,1259.552 1731.834,1277.147 1783.803,1277.147 1899.788,1261.679 1939.98,1277.147 1958.733,1277.147 
				1899.788,1254.461 1750.022,1274.435 1660.804,1252.334 1604.79,1245.344 1545.854,1260.753 1473.238,1245.344 
				1362.735,1245.344 1296.433,1263.911 1198.559,1261.806 1047.365,1277.147 1118.498,1277.147 			"/>
			<polygon fill="#9E373C" points="0,1228.469 109.315,1220.759 209.561,1242.327 265.072,1245.871 292.486,1254.397 
				379.162,1242.543 445.149,1265.796 561.155,1265.349 727.08,1254.29 897.774,1265.796 971.699,1277.147 1047.365,1277.147 
				897.57,1262.858 727.08,1247.072 560.799,1262.858 445.034,1262.858 380.103,1236.264 292.434,1251.282 265.072,1238.653 
				209.294,1238.653 109.315,1213.541 0,1225.781 0,1277.147 0,1277.147 			"/>
		</g>
	</g>
</g>
<g opacity="0.1">
	<g>
		<path fill="#FF846E" d="M842.606,1286.644c-10.437,24.915-16.21,52.269-16.21,80.973c0,115.837,93.904,209.741,209.741,209.741
			c115.837,0,209.741-93.904,209.741-209.741c0-28.704-5.773-56.057-16.21-80.973H842.606z"/>
		<path fill="#FC927E" d="M957.63,1286.644c-10.437,24.915-16.208,52.269-16.208,80.973c0,95.893,64.353,176.755,152.228,201.756
			c87.875-25.002,152.228-105.863,152.228-201.756c0-28.704-5.771-56.058-16.208-80.973H957.63z"/>
		<path fill="#FC9E8D" d="M1065.103,1286.644c-10.439,24.917-16.223,52.267-16.223,80.973c0,74.973,39.338,140.756,98.499,177.84
			c59.161-37.084,98.499-102.867,98.499-177.84c0-28.706-5.785-56.056-16.223-80.973H1065.103z"/>
		<path fill="#FCB3A6" d="M1173.088,1286.644c-10.439,24.915-16.212,52.268-16.212,80.973c0,48.729,16.623,93.573,44.501,129.181
			c27.878-35.608,44.501-80.452,44.501-129.181c0-28.705-5.773-56.058-16.212-80.973H1173.088z"/>
		<g opacity="0.37">
			<ellipse fill="#ED6349" cx="921.112" cy="1409.995" rx="28.756" ry="33.297"/>
			<ellipse fill="#ED6349" cx="1083.055" cy="1475.075" rx="46.918" ry="36.324"/>
			<path fill="#ED6349" d="M1055.738,1286.644c-0.924,3.032-1.439,6.353-1.439,9.839c0,14.21,8.47,25.729,18.919,25.729
				c10.449,0,18.919-11.52,18.919-25.729c0-3.486-0.516-6.807-1.439-9.839H1055.738z"/>
			<circle fill="#ED6349" cx="1024.786" cy="1371.401" r="11.351"/>
			<ellipse fill="#ED6349" cx="1220.783" cy="1328.266" rx="19.675" ry="31.783"/>
			<ellipse fill="#ED6349" cx="1161" cy="1408.482" rx="9.838" ry="13.621"/>
		</g>
	</g>
	<g>
		<g>
			<polygon points="0,1426.706 190.703,1393.492 297.158,1410.099 363.892,1376.411 432.816,1381.941 464.759,1379.629 
				549.937,1405.065 700.936,1370.379 792.891,1394.081 846.128,1398.542 882.909,1407.956 934.21,1381.363 1014.549,1366.333 
				1058.107,1353.614 1155.869,1381.363 1181.035,1377.316 1274.926,1395.237 1340.746,1372.113 1474.322,1395.815 
				1521.751,1396.972 1554.661,1407.377 1610.801,1390.16 1703.724,1380.785 1822.781,1417.205 1911.831,1379.051 1952.485,1390.16 
				1993.138,1387.722 2045.407,1413.158 2094.73,1385.988 2094.73,1279.543 0,1279.543 			"/>
		</g>
		<polygon points="2045.407,1413.158 1993.138,1387.722 1952.485,1390.16 1911.831,1379.051 1822.781,1417.205 1703.724,1380.785 
			1610.801,1390.16 1554.661,1407.377 1521.751,1396.972 1474.322,1395.815 1340.746,1372.114 1274.926,1395.237 1181.035,1377.316 
			1155.869,1381.363 1058.107,1353.614 1014.549,1366.333 934.21,1381.363 882.909,1407.956 846.128,1398.542 792.891,1394.081 
			700.936,1370.379 549.937,1405.065 464.759,1379.629 432.816,1381.941 363.892,1376.411 297.158,1410.099 190.703,1393.492 
			0,1426.706 0,1418.724 78.269,1402.672 129.64,1375.477 139.565,1381.753 191.52,1353.124 162.915,1389.075 294.264,1404.067 
			277.918,1387.138 305.356,1401.277 325.204,1391.167 320.534,1387.138 301.853,1382.45 329.29,1384.542 335.128,1387.138 
			356.144,1374.78 304.772,1366.063 431.45,1377.918 441.374,1367.807 432.618,1356.998 455.969,1365.366 452.466,1374.431 
			474.065,1370.247 464.141,1356.998 549.372,1398.837 676.05,1365.715 625.262,1353.124 794.556,1388.726 842.425,1392.91 
			880.954,1403.369 931.158,1378.266 977.777,1364.417 981,1367.411 1001.054,1349.659 1001.054,1363.989 1015.379,1361.422 
			1050.474,1350.728 1002.128,1338.965 1103.833,1359.711 1099.894,1353.124 1130.333,1368.908 1128.185,1363.989 1156.476,1376.18 
			1172.591,1374.469 1146.807,1365.914 1223.802,1380.058 1223.802,1374.042 1254.599,1387.516 1254.599,1380.058 
			1271.073,1387.516 1284.323,1381.741 1284.323,1390.083 1334.817,1370.619 1306.526,1361.636 1473.05,1393.505 1515.665,1389.441 
			1553.983,1404.199 1553.983,1395.002 1560.631,1401.424 1562.724,1397.424 1568.165,1399.257 1607.654,1388.515 1699.793,1379.82 
			1679.063,1372.918 1817.873,1412.27 1905.668,1378.137 1881.978,1371.12 1921.269,1379.402 1925.506,1377.906 1936.099,1382.835 
			1938.218,1380.667 1952.086,1387.799 1985.47,1384.956 1968.062,1372.049 2020.286,1396.07 2017.885,1387.824 2036.493,1401.806 
			2037.094,1394.994 2050.3,1403.24 2094.73,1385.988 		"/>
	</g>
	<g>
		<g>
			<polygon points="2094.73,1353.124 1904.027,1335.977 1797.572,1344.551 1730.838,1327.158 1661.913,1330.013 1629.971,1328.819 
				1544.792,1341.952 1393.794,1324.044 1301.839,1336.281 1248.602,1338.584 1211.821,1343.444 1160.52,1329.715 
				1080.181,1321.955 1036.623,1315.389 938.861,1329.715 913.695,1327.625 819.804,1336.878 753.984,1324.939 620.408,1337.176 
				572.979,1337.773 540.069,1343.146 483.929,1334.256 391.006,1329.416 271.949,1348.219 182.899,1328.521 142.245,1334.256 
				101.592,1332.998 49.323,1346.13 0,1332.102 0,1277.147 2094.73,1277.147 			"/>
		</g>
		<polygon points="49.323,1346.13 101.592,1332.998 142.245,1334.256 182.899,1328.521 271.949,1348.219 391.006,1329.416 
			483.929,1334.256 540.069,1343.146 572.979,1337.773 620.408,1337.176 753.984,1324.939 819.804,1336.878 913.695,1327.625 
			938.861,1329.715 1036.623,1315.389 1080.181,1321.955 1160.52,1329.715 1211.821,1343.444 1248.602,1338.584 1301.839,1336.281 
			1393.794,1324.044 1544.792,1341.952 1629.971,1328.819 1661.913,1330.013 1730.838,1327.158 1797.572,1344.551 
			1904.027,1335.977 2094.73,1353.124 2094.73,1349.004 2016.461,1340.716 1965.089,1326.676 1955.165,1329.916 1903.21,1315.136 
			1931.814,1333.696 1800.466,1341.436 1816.812,1332.696 1789.374,1339.996 1769.526,1334.776 1774.196,1332.696 
			1792.877,1330.276 1765.44,1331.356 1759.602,1332.696 1738.586,1326.316 1789.958,1321.816 1663.28,1327.936 1653.356,1322.716 
			1662.112,1317.136 1638.761,1321.456 1642.264,1326.136 1620.664,1323.976 1630.589,1317.136 1545.358,1338.736 1418.68,1321.636 
			1469.468,1315.136 1300.174,1333.516 1252.305,1335.676 1213.776,1341.076 1163.572,1328.116 1116.953,1320.966 1113.73,1322.512 
			1093.676,1313.347 1093.676,1320.745 1079.351,1319.42 1044.256,1313.899 1092.601,1307.825 990.897,1318.536 994.836,1315.136 
			964.396,1323.285 966.545,1320.745 938.254,1327.039 922.139,1326.156 947.923,1321.739 870.928,1329.041 870.928,1325.935 
			840.13,1332.891 840.13,1329.041 823.657,1332.891 810.407,1329.91 810.407,1334.217 759.913,1324.168 788.204,1319.53 
			621.68,1335.983 579.065,1333.885 540.746,1341.505 540.746,1336.756 534.099,1340.072 532.006,1338.007 526.565,1338.953 
			487.076,1333.407 394.937,1328.918 415.667,1325.355 276.857,1345.671 189.062,1328.049 212.752,1324.426 173.461,1328.702 
			169.224,1327.93 158.63,1330.475 156.512,1329.356 142.644,1333.038 109.26,1331.57 126.668,1324.906 74.444,1337.308 
			76.845,1333.05 58.237,1340.269 57.636,1336.752 44.43,1341.009 0,1332.102 		"/>
	</g>
	<g>
		<polygon points="0,1307.825 109.315,1315.136 209.294,1300.138 265.072,1300.138 292.434,1292.595 380.103,1301.564 
			445.034,1285.681 560.799,1285.681 727.08,1295.109 897.57,1285.681 1047.365,1277.147 1198.559,1286.31 1296.433,1285.053 
			1362.735,1296.141 1473.238,1296.141 1545.854,1286.938 1604.79,1296.141 1660.804,1291.967 1750.022,1278.767 1899.788,1290.697 
			1958.733,1277.147 0,1277.147 		"/>
		<g>
			<polygon points="1198.559,1281.999 1296.433,1280.742 1362.735,1291.831 1473.238,1291.831 1545.854,1282.628 1604.79,1291.831 
				1660.804,1287.656 1731.834,1277.147 1783.803,1277.147 1899.788,1286.386 1939.98,1277.147 1958.733,1277.147 
				1899.788,1290.697 1750.022,1278.767 1660.804,1291.967 1604.79,1296.141 1545.854,1286.938 1473.238,1296.141 
				1362.735,1296.141 1296.433,1285.053 1198.559,1286.31 1047.365,1277.147 1118.498,1277.147 			"/>
			<polygon points="0,1306.22 109.315,1310.825 209.561,1297.944 265.072,1295.827 292.486,1290.735 379.162,1297.814 
				445.149,1283.927 561.155,1284.194 727.08,1290.799 897.774,1283.927 971.699,1277.147 1047.365,1277.147 897.57,1285.681 
				727.08,1295.109 560.799,1285.681 445.034,1285.681 380.103,1301.564 292.434,1292.595 265.072,1300.138 209.294,1300.138 
				109.315,1315.136 0,1307.825 0,1277.147 0,1277.147 			"/>
		</g>
	</g>
</g>
<g>
	<polygon fill="#3C1145" points="2850,1177.253 2706.628,1124.499 2660.754,1133.704 2498.555,1091.625 2480.533,1075.845 
		2387.146,1054.805 2352.74,1036.561 1985.745,956.181 1928.402,965.386 1671.178,915.416 1653.156,950.921 1642.876,949.903 
		1627.154,975.883 1627.154,984.791 1623.778,986.29 1613.78,1003.858 1616.212,1011.45 1610.267,1015.137 1598.35,1036.561 
		1714.547,1102.279 1698.744,1141.389 1711.913,1161.473 1700.061,1167.815 1698.744,1177.253 1722.449,1202.697 1747.731,1266.12 
		1758.267,1299.945 1727.976,1331.656 1738.512,1366.538 1784.606,1399.306 1775.388,1431.017 1872.844,1500.781 1822.191,1615.075 
		1962.939,1720.087 1958.974,1772.593 1913.38,1800 2850,1800 	"/>
	<polygon fill="#26002D" points="2352.74,1036.561 1985.745,956.181 1928.402,965.386 1671.178,915.416 1657.653,942.062 
		1859.778,995.313 1642.876,949.903 1627.154,975.883 1741.909,1004.302 1623.778,986.29 1613.78,1003.858 1756.271,1044.993 
		1616.212,1011.45 1610.267,1015.137 1598.35,1036.561 1714.547,1102.279 2084.612,1185.777 1744.736,1120.876 2335.676,1276.297 
		1843.795,1165.282 2214.413,1262.634 2106.815,1254.094 1782.31,1170.406 1698.744,1141.389 1711.913,1161.473 1859.61,1207.151 
		1700.061,1167.815 1698.744,1177.253 1722.449,1202.697 1758.267,1299.945 1727.976,1331.656 1949.827,1409.371 2272.099,1451.745 
		1946.482,1419.407 1732.972,1348.196 1738.512,1366.538 1784.606,1399.306 1937.561,1451.745 2092.564,1476.278 1926.41,1461.782 
		1780.08,1414.874 1775.388,1431.017 1872.844,1500.781 1946.482,1523.114 1867.793,1512.178 1822.191,1615.075 1962.939,1720.087 
		1958.974,1772.593 1913.38,1800 2462.945,1800 2850,1800 2850,1177.253 2706.628,1124.499 2660.754,1133.704 2498.555,1091.625 
		2480.533,1075.845 2387.146,1054.805 	"/>
	<polygon fill="#3C1145" points="1958.974,1772.593 1913.38,1800 1957.499,1787.324 	"/>
	<polygon fill="#24002B" points="1989.771,1635.228 2192.701,1687.597 2097.575,1617.573 1867.793,1512.178 2164.131,1556.385 
		2391.831,1624.974 2391.831,1624.975 2443.088,1579.043 2407.235,1443.804 2356.428,1385.739 2390.645,1324.564 2575.207,1329.749 
		2637.419,1240.578 2468.41,1209.472 2467.373,1197.03 2395.829,1159.702 2405.161,1133.781 2352.74,1036.561 2387.146,1054.805 
		2480.533,1075.845 2498.555,1091.625 2660.754,1133.704 2706.628,1124.499 2850,1177.253 2850,1800 2026.726,1800 
		1976.015,1729.704 1822.191,1615.075 	"/>
	<polygon fill="#3C1145" points="2850,1177.253 2706.628,1124.499 2660.754,1133.704 2498.555,1091.625 2480.533,1075.845 
		2387.146,1054.805 2352.74,1036.561 1985.745,956.181 1928.402,965.386 1671.178,915.416 1660.804,936.909 1949.279,991.868 
		2015.982,984.101 2350.753,1046.335 2381.114,1062.792 2474.728,1081.009 2491.427,1096.695 2657.403,1142.237 2706.993,1130.093 	
		"/>
</g>
<g>
	<g>
		<g>
			<path fill="#3C1245" d="M1822.687,943.812c-8.619-31.459-27.646-59.352-50.777-82.35c27.039,19.623,46.364,49.596,53.078,82.323"
				/>
		</g>
		<g>
			<path fill="#3C1245" d="M1822.825,947.58c-2.998-26.565-7.15-63.457-11.867-89.772c2.95,3.98,4.495,8.807,5.835,13.577
				c7.096,25.26,9.826,51.741,8.031,77.917"/>
		</g>
		<g>
			<path fill="#3C1245" d="M1823.951,947.13c0.325-13.435,2.946-38.07,5.252-51.31c2.306-13.24,6.535-26.306,13.898-37.548
				c-4.569,10.338-6.505,21.619-8.228,32.789c-2.998,19.438-5.473,38.957-7.419,58.529"/>
		</g>
		<g>
			<path fill="#3C1245" d="M1847.451,962.327c-3.621-23.378-12.843-46.416-10.137-69.917c1.975,22.56,5.993,44.94,11.99,66.777"/>
		</g>
		<g>
			<path fill="#3C1245" d="M1847.448,955.066c0.731-18.292,1.525-36.92,7.724-54.146c1.984-5.512,4.543-10.885,8.261-15.413
				c-3.28,6.187-4.793,13.136-6.134,20.009c-3.432,17.581-5.979,35.334-7.629,53.171"/>
		</g>
	</g>
	<g>
		<g>
			<path fill="#3C1245" d="M2206.811,1005.11c-10.958-15.256-27.076-26.735-45.077-32.105c3.004-0.697,5.761-2.421,7.702-4.817
				c-4.231-0.912-8.462-1.824-12.692-2.735c-1.488-0.321-3.023-0.662-4.254-1.557c-1.211-0.88-2.004-2.209-2.742-3.511
				c-3.858-6.813-7.111-13.969-9.708-21.357c22.637-3.051,46.509,10.318,55.734,31.214c-1.294,1.163-2.588,2.326-3.882,3.49
				c3.218-1.189,6.92,0.705,8.904,3.504c1.984,2.798,2.65,6.293,3.267,9.668c1.275,6.977,2.551,13.954,3.826,20.931"/>
		</g>
		<g>
			<path fill="#3C1245" d="M2206.099,1004.01c-1.566-20.025-9.456-38.919-14.914-58.25c-0.248-0.878-0.493-1.793-0.335-2.691
				c0.132-0.749,0.533-1.419,0.812-2.127c1.707-4.322-1.254-8.961-4.062-12.663c11.583,1.241,20.454,11.742,23.517,22.981
				c0.744,2.728,1.062,6.061-1.002,7.994c0.936,0.531,1.872,1.062,2.808,1.593c0.366,17.353-1.796,34.756-6.397,51.492"/>
		</g>
		<g>
			<path fill="#3C1245" d="M2205.716,1007.835c12.028-10.696,26.001-15.838,42.094-15.54c1.08,0.02,2.257,0.037,3.113-0.62
				c2.088-1.603,0.791-5.917,3.257-6.838c1.973,4.135,4.559,7.978,7.647,11.363c2.962,3.247,6.543,6.358,7.464,10.656
				c4.343-5.361,5.222-13.064,3.025-19.603c-2.197-6.54-7.18-11.921-13.1-15.464c-6.75-4.04-15.263-5.814-22.595-2.965
				c-4.814,1.871-8.705,5.522-12.207,9.318c-7.14,7.741-13.221,16.457-18.021,25.83"/>
		</g>
		<g>
			<path fill="#3C1245" d="M2208.438,1004.728c7.002-19.969,20.824-36.999,39.762-46.44c-0.472-1.405-0.944-2.81-1.416-4.215
				c4.98-3.459,10.554-6.061,16.403-7.656c-7.617-3.12-15.958-6.145-23.901-3.984c-5.815,1.582-10.584,5.784-14.361,10.48
				c-11.601,14.424-15.267,33.5-18.115,51.79"/>
		</g>
	</g>
	<g>
		<path fill="none" stroke="#3C1245" stroke-width="3" stroke-linecap="round" stroke-linejoin="round" stroke-miterlimit="10" d="
			M2613.337,927.043c7.299,16.683,15.636,32.911,24.947,48.56"/>
		<path fill="none" stroke="#3C1245" stroke-width="3" stroke-linecap="round" stroke-linejoin="round" stroke-miterlimit="10" d="
			M2640.196,975.122c3.026,2.492,6.051,4.983,9.077,7.474"/>
		<path fill="none" stroke="#3C1245" stroke-width="3" stroke-linecap="round" stroke-linejoin="round" stroke-miterlimit="10" d="
			M2652.269,984.483c2.253,8.611,5.233,17.032,8.898,25.144"/>
		<path fill="none" stroke="#3C1245" stroke-width="3" stroke-linecap="round" stroke-linejoin="round" stroke-miterlimit="10" d="
			M2662.034,1010.738c2.967,3.166,5.933,6.333,8.9,9.499"/>
		<path fill="none" stroke="#3C1245" stroke-width="3" stroke-linecap="round" stroke-linejoin="round" stroke-miterlimit="10" d="
			M2652.711,985.086c-4.662-11.174-8.8-22.566-12.395-34.127"/>
		<path fill="none" stroke="#3C1245" stroke-width="3" stroke-linecap="round" stroke-linejoin="round" stroke-miterlimit="10" d="
			M2641.48,951.381c-3.018-1.631-6.035-3.262-9.053-4.892"/>
		<path fill="none" stroke="#3C1245" stroke-width="3" stroke-linecap="round" stroke-linejoin="round" stroke-miterlimit="10" d="
			M2641.145,950.732c-0.77-8.732-1.318-17.484-1.642-26.244"/>
		<path fill="none" stroke="#3C1245" stroke-width="3" stroke-linecap="round" stroke-linejoin="round" stroke-miterlimit="10" d="
			M2627.65,958.738c-5.49-2.72-10.666-6.07-15.396-9.964"/>
		<path fill="none" stroke="#3C1245" stroke-width="3" stroke-linecap="round" stroke-linejoin="round" stroke-miterlimit="10" d="
			M2659.767,1006.728c-7.629-4.123-16.301-6.298-24.972-6.262"/>
		<path fill="none" stroke="#3C1245" stroke-width="3" stroke-linecap="round" stroke-linejoin="round" stroke-miterlimit="10" d="
			M2635.841,999.654c-2.265-0.113-3.702-2.407-4.695-4.446c-2.566-5.269-4.848-10.677-6.832-16.191"/>
		<path fill="none" stroke="#3C1245" stroke-width="3" stroke-linecap="round" stroke-linejoin="round" stroke-miterlimit="10" d="
			M2637.565,1001.094c-4.17-0.933-8.24-2.313-12.117-4.11"/>
		<path fill="none" stroke="#3C1245" stroke-width="3" stroke-linecap="round" stroke-linejoin="round" stroke-miterlimit="10" d="
			M2672.188,1029.609c-0.46-15.566,0.863-31.184,3.937-46.45"/>
		<path fill="none" stroke="#3C1245" stroke-width="3" stroke-linecap="round" stroke-linejoin="round" stroke-miterlimit="10" d="
			M2677.014,981.619c0.232,0.833,1.5,0.317,2.08-0.324c10.294-11.381,20.589-22.763,30.883-34.144"/>
		<path fill="none" stroke="#3C1245" stroke-width="3" stroke-linecap="round" stroke-linejoin="round" stroke-miterlimit="10" d="
			M2676.035,984.348c0.487-5.709,0.973-11.418,1.459-17.127"/>
		<path fill="none" stroke="#3C1245" stroke-width="3" stroke-linecap="round" stroke-linejoin="round" stroke-miterlimit="10" d="
			M2676.775,966.138c-6.164-10.553-11.977-21.311-17.425-32.251"/>
		<path fill="none" stroke="#3C1245" stroke-width="3" stroke-linecap="round" stroke-linejoin="round" stroke-miterlimit="10" d="
			M2660.407,935.582c1.901-5.043,3.452-10.217,4.638-15.474"/>
		<path fill="none" stroke="#3C1245" stroke-width="3" stroke-linecap="round" stroke-linejoin="round" stroke-miterlimit="10" d="
			M2677.583,966.434c0.249-6.825,1.287-13.621,3.088-20.209"/>
		<path fill="none" stroke="#3C1245" stroke-width="3" stroke-linecap="round" stroke-linejoin="round" stroke-miterlimit="10" d="
			M2697.834,958.834c-0.199-6.443-0.399-12.886-0.599-19.329"/>
		<path fill="none" stroke="#3C1245" stroke-width="3" stroke-linecap="round" stroke-linejoin="round" stroke-miterlimit="10" d="
			M2696.685,937.126c2.165-2.862,3.997-5.976,5.447-9.258"/>
		<path fill="none" stroke="#3C1245" stroke-width="3" stroke-linecap="round" stroke-linejoin="round" stroke-miterlimit="10" d="
			M2688.311,972.141c6.703-2.739,13.406-5.479,20.11-8.218"/>
		<path fill="none" stroke="#3C1245" stroke-width="3" stroke-linecap="round" stroke-linejoin="round" stroke-miterlimit="10" d="
			M2708.582,964.657c0.863-1.922,1.725-3.844,2.587-5.766"/>
		<path fill="none" stroke="#3C1245" stroke-width="3" stroke-linecap="round" stroke-linejoin="round" stroke-miterlimit="10" d="
			M2672.557,1008.277c5.943-2.628,11.714-5.645,17.264-9.025"/>
		
			<line fill="none" stroke="#3C1245" stroke-width="3" stroke-linecap="round" stroke-linejoin="round" stroke-miterlimit="10" x1="2689.821" y1="999.252" x2="2695" y2="993.5"/>
		<path fill="none" stroke="#3C1245" stroke-width="3" stroke-linecap="round" stroke-linejoin="round" stroke-miterlimit="10" d="
			M2672.547,1027.646c4.403,16.275,8.206,32.713,11.398,49.268"/>
		<path fill="none" stroke="#3C1245" stroke-width="3" stroke-linecap="round" stroke-linejoin="round" stroke-miterlimit="10" d="
			M2684.012,1076.226c-1.216,15.82-2.282,36.653-2.687,52.514"/>
		<path fill="none" stroke="#3C1245" stroke-width="3" stroke-linecap="round" stroke-linejoin="round" stroke-miterlimit="10" d="
			M2683.604,1078.109c4.553-14.1,10.241-27.834,16.99-41.025"/>
		<path fill="none" stroke="#3C1245" stroke-width="3" stroke-linecap="round" stroke-linejoin="round" stroke-miterlimit="10" d="
			M2700.049,1037.319c4.564-5.955,9.129-11.91,13.694-17.865"/>
		<path fill="none" stroke="#3C1245" stroke-width="3" stroke-linecap="round" stroke-linejoin="round" stroke-miterlimit="10" d="
			M2699.839,1037.794c-0.132-8.485,0.013-16.975,0.435-25.451"/>
		<path fill="none" stroke="#3C1245" stroke-width="3" stroke-linecap="round" stroke-linejoin="round" stroke-miterlimit="10" d="
			M2713.724,1020.039c0.051-4.344,0.101-8.687,0.152-13.031"/>
		<path fill="none" stroke="#3C1245" stroke-width="3" stroke-linecap="round" stroke-linejoin="round" stroke-miterlimit="10" d="
			M2677.136,1048.914c-6.261-3.472-12.334-7.284-18.182-11.414"/>
		<path fill="none" stroke="#3C1245" stroke-width="3" stroke-linecap="round" stroke-linejoin="round" stroke-miterlimit="10" d="
			M2659.028,1036.999c-4.413-6.985-8.826-13.971-13.24-20.956"/>
		<path fill="none" stroke="#3C1245" stroke-width="3" stroke-linecap="round" stroke-linejoin="round" stroke-miterlimit="10" d="
			M2660.809,1037.916c-7.1-3.564-13.661-8.199-19.393-13.701"/>
	</g>
	<g>
		<g>
			<path fill="#3C1245" d="M2563.053,1111.673c-3.692-26.07-16.587-50.037-32.187-71.248c20.671,19.121,33.502,46.481,34.984,74.601
				"/>
		</g>
		<g>
			<path fill="#3C1245" d="M2565.417,1112.417c-1.971-17.494-1.451-35.267,1.538-52.616c1.252-7.264,3.004-14.624,7.03-20.799
				c-0.688,14.957-4.365,29.623-5.684,44.537c-1.114,12.6,0.237,17.904,0.814,30.54"/>
		</g>
		<g>
			<path fill="#3C1245" d="M2565.654,1112.882c-0.016-16.266-0.173-32.588-2.425-48.697c-2.251-16.109-6.666-32.086-14.731-46.212
				c10.78,30.773,15.918,63.512,15.085,96.107"/>
		</g>
	</g>
</g>
<g>
	<path opacity="0.05" fill="#E5EDD4" d="M1803.971,1800h305.333c44.878-44.702,69.803-108.595,62.464-176.443
		c-12.841-118.717-119.569-204.555-238.382-191.724c-118.814,12.831-204.721,119.472-191.88,238.189
		C1747.045,1721.228,1770.062,1766.307,1803.971,1800z"/>
	
		<ellipse transform="matrix(0.7071 -0.7071 0.7071 0.7071 -549.4358 1698.3524)" opacity="0.05" fill="#E5EDD4" cx="1775.375" cy="1512.404" rx="83.932" ry="83.932"/>
	
		<ellipse transform="matrix(0.9196 -0.3929 0.3929 0.9196 -436.0381 781.1762)" opacity="0.05" fill="#E5EDD4" cx="1690.039" cy="1455.631" rx="60.903" ry="60.904"/>
	
		<ellipse transform="matrix(0.7071 -0.7071 0.7071 0.7071 -213.9948 401.7486)" opacity="0.05" fill="#E5EDD4" cx="377.956" cy="459.189" rx="83.473" ry="83.473"/>
	
		<ellipse transform="matrix(0.0936 -0.9956 0.9956 0.0936 -105.0302 930.3843)" opacity="0.05" fill="#E5EDD4" cx="458.484" cy="522.878" rx="60.571" ry="60.57"/>
</g>
<g opacity="0.12">
	
		<line fill="none" stroke="#FFFFFF" stroke-width="20" stroke-linecap="round" stroke-linejoin="round" stroke-miterlimit="10" x1="389.175" y1="1349.689" x2="614.557" y2="1349.689"/>
	
		<line fill="none" stroke="#FFFFFF" stroke-width="20" stroke-linecap="round" stroke-linejoin="round" stroke-miterlimit="10" x1="735.36" y1="1349.689" x2="846.877" y2="1349.689"/>
	
		<line fill="none" stroke="#FFFFFF" stroke-width="20" stroke-linecap="round" stroke-linejoin="round" stroke-miterlimit="10" x1="931.956" y1="1349.689" x2="975.413" y2="1349.689"/>
	
		<line fill="none" stroke="#FFFFFF" stroke-width="20" stroke-linecap="round" stroke-linejoin="round" stroke-miterlimit="10" x1="428.768" y1="1607.275" x2="540.285" y2="1607.275"/>
	
		<line fill="none" stroke="#FFFFFF" stroke-width="20" stroke-linecap="round" stroke-linejoin="round" stroke-miterlimit="10" x1="625.364" y1="1607.275" x2="668.821" y2="1607.275"/>
	
		<line fill="none" stroke="#FFFFFF" stroke-width="20" stroke-linecap="round" stroke-linejoin="round" stroke-miterlimit="10" x1="1068.898" y1="1349.689" x2="1330.184" y2="1349.689"/>
	
		<line fill="none" stroke="#FFFFFF" stroke-width="20" stroke-linecap="round" stroke-linejoin="round" stroke-miterlimit="10" x1="1398.898" y1="1349.689" x2="1454.781" y2="1349.689"/>
	
		<line fill="none" stroke="#FFFFFF" stroke-width="20" stroke-linecap="round" stroke-linejoin="round" stroke-miterlimit="10" x1="1291.243" y1="1491.476" x2="1065.861" y2="1491.476"/>
	
		<line fill="none" stroke="#FFFFFF" stroke-width="20" stroke-linecap="round" stroke-linejoin="round" stroke-miterlimit="10" x1="859.988" y1="1562.398" x2="800.886" y2="1562.398"/>
	
		<line fill="none" stroke="#FFFFFF" stroke-width="20" stroke-linecap="round" stroke-linejoin="round" stroke-miterlimit="10" x1="1127.999" y1="1562.398" x2="1098.448" y2="1562.398"/>
	
		<line fill="none" stroke="#FFFFFF" stroke-width="20" stroke-linecap="round" stroke-linejoin="round" stroke-miterlimit="10" x1="1036.137" y1="1607.275" x2="970.602" y2="1607.275"/>
	
		<line fill="none" stroke="#FFFFFF" stroke-width="20" stroke-linecap="round" stroke-linejoin="round" stroke-miterlimit="10" x1="1062.392" y1="1562.398" x2="931.956" y2="1562.398"/>
	
		<line fill="none" stroke="#FFFFFF" stroke-width="20" stroke-linecap="round" stroke-linejoin="round" stroke-miterlimit="10" x1="945.058" y1="1491.476" x2="833.542" y2="1491.476"/>
	
		<line fill="none" stroke="#FFFFFF" stroke-width="20" stroke-linecap="round" stroke-linejoin="round" stroke-miterlimit="10" x1="845.478" y1="1714.839" x2="620.097" y2="1714.839"/>
	
		<line fill="none" stroke="#FFFFFF" stroke-width="20" stroke-linecap="round" stroke-linejoin="round" stroke-miterlimit="10" x1="313.501" y1="1714.839" x2="201.985" y2="1714.839"/>
	
		<line fill="none" stroke="#FFFFFF" stroke-width="20" stroke-linecap="round" stroke-linejoin="round" stroke-miterlimit="10" x1="1698.16" y1="1714.839" x2="1614.815" y2="1714.839"/>
	
		<line fill="none" stroke="#FFFFFF" stroke-width="20" stroke-linecap="round" stroke-linejoin="round" stroke-miterlimit="10" x1="1304.623" y1="1714.839" x2="1240.459" y2="1714.839"/>
	
		<line fill="none" stroke="#FFFFFF" stroke-width="20" stroke-linecap="round" stroke-linejoin="round" stroke-miterlimit="10" x1="1284.323" y1="1422.866" x2="1170.138" y2="1422.866"/>
	
		<line fill="none" stroke="#FFFFFF" stroke-width="20" stroke-linecap="round" stroke-linejoin="round" stroke-miterlimit="10" x1="1607.654" y1="1422.866" x2="1560.134" y2="1422.866"/>
	
		<line fill="none" stroke="#FFFFFF" stroke-width="20" stroke-linecap="round" stroke-linejoin="round" stroke-miterlimit="10" x1="336.443" y1="1491.476" x2="261.437" y2="1491.476"/>
	
		<line fill="none" stroke="#FFFFFF" stroke-width="20" stroke-linecap="round" stroke-linejoin="round" stroke-miterlimit="10" x1="1076.654" y1="1422.866" x2="815.367" y2="1422.866"/>
	
		<line fill="none" stroke="#FFFFFF" stroke-width="20" stroke-linecap="round" stroke-linejoin="round" stroke-miterlimit="10" x1="746.653" y1="1422.866" x2="690.77" y2="1422.866"/>
	
		<line fill="none" stroke="#FFFFFF" stroke-width="20" stroke-linecap="round" stroke-linejoin="round" stroke-miterlimit="10" x1="1751.557" y1="1654.601" x2="1637.373" y2="1654.601"/>
	
		<line fill="none" stroke="#FFFFFF" stroke-width="20" stroke-linecap="round" stroke-linejoin="round" stroke-miterlimit="10" x1="1543.888" y1="1654.601" x2="1282.601" y2="1654.601"/>
	
		<line fill="none" stroke="#FFFFFF" stroke-width="20" stroke-linecap="round" stroke-linejoin="round" stroke-miterlimit="10" x1="1213.888" y1="1654.601" x2="1158.005" y2="1654.601"/>
</g>
</svg>
